<?xml version="1.0" encoding="utf-8"?>
<!-- Generator: Adobe Illustrator 22.0.1, SVG Export Plug-In . SVG Version: 6.00 Build 0)  -->
<svg version="1.1" id="Calque_1" xmlns="http://www.w3.org/2000/svg" xmlns:xlink="http://www.w3.org/1999/xlink" x="0px" y="0px"
	 viewBox="0 0 300 50" style="enable-background:new 0 0 300 50;" xml:space="preserve">
<style type="text/css">
	.st0{fill:url(#SVGID_1_);}
	.st1{fill:url(#SVGID_2_);}
	.st2{fill:#833016;}
	.st3{fill:url(#SVGID_3_);}
	.st4{fill:#843016;}
	.st5{fill:url(#SVGID_4_);}
	.st6{fill:url(#SVGID_5_);}
	.st7{fill:url(#SVGID_6_);}
	.st8{fill:url(#SVGID_7_);}
	.st9{fill:url(#SVGID_8_);}
	.st10{fill:#790000;}
	.st11{fill:url(#SVGID_9_);}
	.st12{fill:url(#SVGID_10_);}
	.st13{fill:url(#SVGID_11_);}
	.st14{fill:url(#SVGID_12_);}
	.st15{fill:url(#SVGID_13_);}
	.st16{fill:url(#SVGID_14_);}
	.st17{fill:#207ACB;}
	.st18{fill:#003D58;}
	.st19{fill:url(#SVGID_15_);}
	.st20{fill:url(#SVGID_16_);}
	.st21{fill:url(#SVGID_17_);}
	.st22{fill:url(#SVGID_18_);}
	.st23{fill:#D00081;}
	.st24{fill:#420A5C;}
	.st25{fill:url(#SVGID_19_);}
	.st26{fill:url(#SVGID_20_);}
	.st27{fill:url(#SVGID_21_);}
	.st28{fill:url(#SVGID_22_);}
	.st29{fill:url(#SVGID_23_);}
	.st30{fill:#09A200;}
	.st31{fill:#004719;}
	.st32{fill:url(#SVGID_24_);}
	.st33{fill:url(#SVGID_25_);}
	.st34{fill:url(#SVGID_26_);}
	.st35{fill:url(#SVGID_27_);}
	.st36{fill:url(#SVGID_28_);}
	.st37{fill:#5B0000;}
	.st38{fill:url(#SVGID_29_);}
	.st39{fill:url(#SVGID_30_);}
	.st40{fill:url(#SVGID_31_);}
	.st41{fill:url(#SVGID_32_);}
	.st42{fill:url(#SVGID_33_);}
	.st43{fill:url(#SVGID_34_);}
</style>
<g>
	
		<linearGradient id="SVGID_1_" gradientUnits="userSpaceOnUse" x1="268.0122" y1="507.4063" x2="227.4694" y2="480.0599" gradientTransform="matrix(1 -4.742653e-04 4.742653e-04 1 27.1239 -468.5391)">
		<stop  offset="0" style="stop-color:#884000"/>
		<stop  offset="1" style="stop-color:#FFF200"/>
	</linearGradient>
	<path class="st0" d="M275,0.4c13.6,0,24.6,11,24.6,24.6c0,13.6-11,24.6-24.6,24.6c-13.6,0-24.6-11-24.6-24.6
		C250.4,11.4,261.4,0.4,275,0.4z"/>
	
		<radialGradient id="SVGID_2_" cx="258.2954" cy="514.0101" r="56.6156" gradientTransform="matrix(1 -4.742653e-04 4.742653e-04 1 27.1239 -468.5391)" gradientUnits="userSpaceOnUse">
		<stop  offset="0" style="stop-color:#FFCB05"/>
		<stop  offset="0.213" style="stop-color:#FEC208"/>
		<stop  offset="0.5603" style="stop-color:#FAAA11"/>
		<stop  offset="0.9965" style="stop-color:#F58220"/>
		<stop  offset="1" style="stop-color:#F58220"/>
	</radialGradient>
	<path class="st1" d="M275,49.2c13.3,0,24.2-10.9,24.2-24.2S288.3,0.8,275,0.8c-13.3,0-24.2,10.9-24.2,24.2S261.7,49.2,275,49.2z"/>
	<path class="st2" d="M275.2,8.4c9.3,0,16.8,7.5,16.8,16.8c0,9.3-7.5,16.8-16.8,16.8c-9.3,0-16.8-7.5-16.8-16.8
		C258.4,15.9,265.9,8.4,275.2,8.4z"/>
	
		<linearGradient id="SVGID_3_" gradientUnits="userSpaceOnUse" x1="231.1979" y1="475.4045" x2="258.6954" y2="505.9436" gradientTransform="matrix(1 -4.742653e-04 4.742653e-04 1 27.1239 -468.5391)">
		<stop  offset="0" style="stop-color:#E7E8E9"/>
		<stop  offset="0.1124" style="stop-color:#EBECED"/>
		<stop  offset="0.5951" style="stop-color:#FAFAFA"/>
		<stop  offset="1" style="stop-color:#FFFFFF"/>
	</linearGradient>
	<path class="st3" d="M275,8.2c9.3,0,16.8,7.5,16.8,16.8c0,9.3-7.5,16.8-16.8,16.8c-9.3,0-16.8-7.5-16.8-16.8
		C258.2,15.7,265.7,8.2,275,8.2z"/>
	<path class="st4" d="M272.2,10.9L271.9,9c0.9-0.2,1.9-0.2,2.8-0.2s1.9,0.1,2.8,0.2l-0.3,1.9c-0.8-0.1-1.6-0.2-2.5-0.2
		C273.9,10.6,273,10.7,272.2,10.9L272.2,10.9z M279.6,11.5l0.7-1.8c0.9,0.3,1.8,0.7,2.6,1.2s1.6,1,2.3,1.6l-1.3,1.5
		C282.6,12.9,281.2,12.1,279.6,11.5L279.6,11.5z M285.7,15.8l1.5-1.3c0.6,0.7,1.2,1.5,1.6,2.3c0.5,0.8,0.9,1.7,1.2,2.6l-1.8,0.7
		C287.6,18.4,286.7,17,285.7,15.8L285.7,15.8z M288.8,22.4l1.9-0.3c0.2,0.9,0.2,1.9,0.2,2.8c0,0.9-0.1,1.9-0.2,2.8l-1.9-0.3
		c0.1-0.8,0.2-1.6,0.2-2.5C289,24.1,288.9,23.3,288.8,22.4L288.8,22.4z M288.2,29.8l1.9,0.7c-0.3,0.9-0.7,1.8-1.2,2.6
		c-0.5,0.8-1,1.6-1.6,2.3l-1.5-1.3C286.8,32.8,287.6,31.4,288.2,29.8L288.2,29.8z M284,35.9l1.3,1.5c-0.7,0.6-1.5,1.2-2.3,1.6
		c-0.8,0.5-1.7,0.9-2.6,1.2l-0.7-1.8C281.2,37.8,282.7,36.9,284,35.9L284,35.9z M277.3,39l0.3,1.9c-0.9,0.2-1.9,0.2-2.8,0.3
		c-0.9,0-1.9-0.1-2.8-0.2l0.3-1.9c0.8,0.1,1.6,0.2,2.4,0.2C275.6,39.3,276.4,39.2,277.3,39L277.3,39z M269.9,38.4l-0.7,1.8
		c-0.9-0.3-1.8-0.7-2.6-1.2c-0.8-0.5-1.6-1-2.3-1.6l1.2-1.5C266.8,37,268.3,37.9,269.9,38.4L269.9,38.4z M263.8,34.2l-1.5,1.2
		c-0.6-0.7-1.2-1.5-1.6-2.3c-0.5-0.8-0.9-1.7-1.2-2.6l1.8-0.7C261.9,31.5,262.7,32.9,263.8,34.2L263.8,34.2z M260.6,27.5l-1.9,0.3
		c-0.2-0.9-0.2-1.9-0.2-2.8c0-0.9,0.1-1.9,0.2-2.8l1.9,0.3c-0.1,0.8-0.2,1.6-0.2,2.5C260.4,25.8,260.5,26.7,260.6,27.5L260.6,27.5z
		 M261.3,20.1l-1.8-0.7c0.3-0.9,0.7-1.8,1.2-2.6c0.5-0.8,1-1.6,1.6-2.3l1.5,1.2C262.7,17.1,261.8,18.5,261.3,20.1L261.3,20.1z
		 M265.5,14l-1.2-1.5c0.7-0.6,1.5-1.2,2.3-1.6c0.8-0.5,1.7-0.9,2.6-1.2l0.7,1.8C268.2,12.1,266.8,12.9,265.5,14z"/>
	
		<radialGradient id="SVGID_4_" cx="254.7823" cy="507.3037" r="37.9569" gradientTransform="matrix(1 -4.742653e-04 4.742653e-04 1 27.1239 -468.5391)" gradientUnits="userSpaceOnUse">
		<stop  offset="0" style="stop-color:#FFCB05"/>
		<stop  offset="0.213" style="stop-color:#FEC208"/>
		<stop  offset="0.5603" style="stop-color:#FAAA11"/>
		<stop  offset="0.9965" style="stop-color:#F58220"/>
		<stop  offset="1" style="stop-color:#F58220"/>
	</radialGradient>
	<path class="st5" d="M272.5,10.9L272.1,9c0.9-0.2,1.9-0.2,2.8-0.2c0.9,0,1.9,0.1,2.8,0.2l-0.3,1.9c-0.8-0.1-1.6-0.2-2.5-0.2
		C274.1,10.7,273.3,10.8,272.5,10.9L272.5,10.9z M279.8,11.5l0.7-1.8c0.9,0.3,1.8,0.7,2.6,1.2c0.8,0.5,1.6,1,2.3,1.6l-1.3,1.5
		C282.9,13,281.4,12.1,279.8,11.5L279.8,11.5z M285.9,15.8l1.5-1.3c0.6,0.7,1.2,1.5,1.6,2.3c0.5,0.8,0.9,1.7,1.2,2.6l-1.8,0.7
		C287.8,18.5,287,17.1,285.9,15.8L285.9,15.8z M289,22.5l1.9-0.3c0.2,0.9,0.2,1.9,0.2,2.8s-0.1,1.9-0.2,2.8l-1.9-0.3
		c0.1-0.8,0.2-1.6,0.2-2.5C289.3,24.1,289.2,23.3,289,22.5L289,22.5z M288.4,29.9l1.9,0.7c-0.3,0.9-0.7,1.8-1.2,2.6
		c-0.5,0.8-1,1.6-1.6,2.3l-1.5-1.3C287,32.9,287.8,31.4,288.4,29.9L288.4,29.9z M284.2,35.9l1.3,1.5c-0.7,0.6-1.5,1.2-2.3,1.6
		c-0.8,0.5-1.7,0.9-2.6,1.2l-0.7-1.8C281.5,37.8,282.9,37,284.2,35.9L284.2,35.9z M277.5,39.1l0.3,1.9c-0.9,0.2-1.9,0.2-2.8,0.3
		c-0.9,0-1.9-0.1-2.8-0.2l0.3-1.9c0.8,0.1,1.6,0.2,2.4,0.2C275.8,39.3,276.7,39.2,277.5,39.1L277.5,39.1z M270.1,38.5l-0.7,1.8
		c-0.9-0.3-1.8-0.7-2.6-1.2c-0.8-0.5-1.6-1-2.3-1.6l1.2-1.5C267.1,37.1,268.5,37.9,270.1,38.5L270.1,38.5z M264,34.2l-1.5,1.2
		c-0.6-0.7-1.2-1.5-1.6-2.3c-0.5-0.8-0.9-1.7-1.2-2.6l1.8-0.7C262.1,31.5,263,33,264,34.2L264,34.2z M260.9,27.5l-1.9,0.3
		c-0.2-0.9-0.2-1.9-0.2-2.8c0-0.9,0.1-1.9,0.2-2.8l1.9,0.3c-0.1,0.8-0.2,1.6-0.2,2.5C260.7,25.9,260.7,26.7,260.9,27.5L260.9,27.5z
		 M261.5,20.1l-1.8-0.7c0.3-0.9,0.7-1.8,1.2-2.6c0.5-0.8,1-1.6,1.6-2.3l1.5,1.2C262.9,17.1,262.1,18.5,261.5,20.1L261.5,20.1z
		 M265.8,14.1l-1.2-1.5c0.7-0.6,1.5-1.2,2.3-1.6c0.8-0.5,1.7-0.9,2.6-1.2l0.7,1.8C268.5,12.1,267,13,265.8,14.1z"/>
	
		<radialGradient id="SVGID_5_" cx="255.0245" cy="504.6067" r="32.425" gradientTransform="matrix(1 -4.742653e-04 4.742653e-04 1 27.1239 -468.5391)" gradientUnits="userSpaceOnUse">
		<stop  offset="0" style="stop-color:#FFCB05"/>
		<stop  offset="0.213" style="stop-color:#FEC208"/>
		<stop  offset="0.5603" style="stop-color:#FAAA11"/>
		<stop  offset="0.9965" style="stop-color:#F58220"/>
		<stop  offset="1" style="stop-color:#F58220"/>
	</radialGradient>
	<path class="st6" d="M275,38.7c7.5,0,13.7-6.1,13.7-13.7s-6.2-13.7-13.7-13.7c-7.5,0-13.7,6.2-13.7,13.7
		C261.3,32.6,267.5,38.7,275,38.7z"/>
	
		<linearGradient id="SVGID_6_" gradientUnits="userSpaceOnUse" x1="260.6331" y1="513.6864" x2="234.7414" y2="473.8167" gradientTransform="matrix(1 -4.742653e-04 4.742653e-04 1 27.1239 -468.5391)">
		<stop  offset="0" style="stop-color:#808285"/>
		<stop  offset="6.044060e-02" style="stop-color:#8B8C8F"/>
		<stop  offset="0.3695" style="stop-color:#BCBEBF"/>
		<stop  offset="0.6403" style="stop-color:#E1E1E2"/>
		<stop  offset="0.8596" style="stop-color:#F7F7F7"/>
		<stop  offset="1" style="stop-color:#FFFFFF"/>
	</linearGradient>
	<path class="st7" d="M275,6.8c-1.1,0-1.6,0.1-2.8,0.2c-1.3,0.2-2.2-0.7-2.4-1.7l-1-4.3c2-0.5,4.1-0.8,6.2-0.8
		c2.2,0,4.2,0.3,6.2,0.8l-1,4.3c-0.3,1.1-1.1,1.9-2.4,1.7C276.6,6.8,276.1,6.8,275,6.8L275,6.8z M290.8,15.9
		c-0.5-0.9-0.9-1.4-1.6-2.3c-0.8-1-0.5-2.2,0.3-3l3.2-3c2.9,3,5.1,6.7,6.2,10.8l-4.2,1.2c-1,0.3-2.2,0-2.7-1.2
		C291.5,17.3,291.3,16.8,290.8,15.9L290.8,15.9z M290.8,34.1c0.5-0.9,0.7-1.4,1.2-2.5c0.5-1.2,1.7-1.5,2.7-1.2l4.2,1.2
		c-1.1,4.1-3.3,7.8-6.2,10.8l-3.2-3c-0.8-0.8-1.1-1.9-0.3-3C289.9,35.5,290.3,35,290.8,34.1L290.8,34.1z M275,43.2
		c1.1,0,1.6-0.1,2.8-0.2c1.3-0.2,2.2,0.7,2.4,1.7l1,4.3c-2,0.5-4.1,0.8-6.2,0.8c-2.2,0-4.2-0.3-6.2-0.8l1-4.3
		c0.3-1.1,1.1-1.9,2.4-1.7C273.4,43.2,273.9,43.2,275,43.2L275,43.2z M259.2,34.1c0.5,0.9,0.9,1.4,1.6,2.3c0.8,1,0.5,2.2-0.3,3
		l-3.2,3c-2.9-3-5.1-6.7-6.2-10.8l4.2-1.2c1.1-0.3,2.2,0,2.7,1.2C258.4,32.7,258.6,33.2,259.2,34.1L259.2,34.1z M259.2,15.9
		c-0.5,0.9-0.7,1.4-1.2,2.5c-0.5,1.2-1.7,1.5-2.7,1.2l-4.2-1.2c1.1-4.1,3.3-7.8,6.2-10.8l3.2,3c0.8,0.8,1.1,1.9,0.3,3
		C260,14.5,259.7,15,259.2,15.9z"/>
	
		<linearGradient id="SVGID_7_" gradientUnits="userSpaceOnUse" x1="229.0018" y1="476.2934" x2="265.9209" y2="510.7211" gradientTransform="matrix(1 -4.742653e-04 4.742653e-04 1 27.1239 -468.5391)">
		<stop  offset="0" style="stop-color:#E7E8E9"/>
		<stop  offset="1" style="stop-color:#FFFFFF"/>
	</linearGradient>
	<path class="st8" d="M290.8,15.9c-0.5-0.9-0.9-1.4-1.6-2.3c-0.8-1-0.5-2.2,0.3-3l2.9-2.8c2.9,2.9,5,6.6,6.1,10.6l-3.8,1.1
		c-1,0.3-2.2,0-2.7-1.2C291.5,17.3,291.3,16.8,290.8,15.9L290.8,15.9z M290.8,34.1c0.5-0.9,0.7-1.4,1.2-2.5c0.5-1.2,1.7-1.5,2.7-1.2
		l3.8,1.1c-1.1,4.1-3.3,7.7-6.1,10.6l-2.9-2.8c-0.8-0.8-1.1-1.9-0.3-3C289.9,35.5,290.3,35,290.8,34.1L290.8,34.1z M275,43.2
		c1.1,0,1.6-0.1,2.8-0.2c1.3-0.2,2.2,0.7,2.4,1.7l0.9,3.9c-2,0.5-4,0.8-6.1,0.8c-2.1,0-4.2-0.3-6.1-0.8l0.9-3.9
		c0.3-1.1,1.1-1.9,2.4-1.7C273.4,43.2,273.9,43.2,275,43.2L275,43.2z M259.2,34.1c0.5,0.9,0.9,1.4,1.6,2.3c0.8,1,0.5,2.2-0.3,3
		l-2.9,2.8c-2.9-2.9-5-6.6-6.1-10.6l3.8-1.1c1.1-0.3,2.2,0,2.7,1.2C258.4,32.7,258.6,33.2,259.2,34.1L259.2,34.1z M259.2,15.9
		c-0.5,0.9-0.7,1.4-1.2,2.5c-0.5,1.2-1.7,1.5-2.7,1.2l-3.8-1.1c1.1-4.1,3.3-7.7,6.1-10.6l2.9,2.8c0.8,0.8,1.1,1.9,0.3,3
		C260,14.5,259.7,15,259.2,15.9L259.2,15.9z M275,6.8c-1.1,0-1.6,0.1-2.8,0.2c-1.3,0.2-2.2-0.7-2.4-1.7l-0.9-3.9
		c2-0.5,4-0.8,6.1-0.8s4.2,0.3,6.1,0.8l-0.9,3.9c-0.3,1.1-1.1,1.9-2.4,1.7C276.6,6.8,276.1,6.8,275,6.8z"/>
	
		<radialGradient id="SVGID_8_" cx="250.6604" cy="497.6946" r="22.8454" gradientTransform="matrix(1 -4.742653e-04 4.742653e-04 1 27.1239 -468.5391)" gradientUnits="userSpaceOnUse">
		<stop  offset="0" style="stop-color:#FFCB05"/>
		<stop  offset="0.213" style="stop-color:#FEC208"/>
		<stop  offset="0.5603" style="stop-color:#FAAA11"/>
		<stop  offset="0.9965" style="stop-color:#F58220"/>
		<stop  offset="1" style="stop-color:#F58220"/>
	</radialGradient>
	<path class="st9" d="M275,37.6c6.9,0,12.6-5.7,12.6-12.6c0-6.9-5.7-12.6-12.6-12.6c-6.9,0-12.6,5.7-12.6,12.6
		C262.4,32,268,37.6,275,37.6z"/>
	<path class="st10" d="M275,11.3c4.2,0,7.9,1.9,10.4,4.8c-2.5-2.8-6.2-4.6-10.2-4.6c-7.6,0-13.7,6.1-13.7,13.7
		c0,3.4,1.2,6.5,3.3,8.9c-2.1-2.4-3.5-5.6-3.5-9.1C261.3,17.4,267.4,11.3,275,11.3z"/>
</g>
<g>
	
		<linearGradient id="SVGID_9_" gradientUnits="userSpaceOnUse" x1="95.6575" y1="556.9337" x2="54.5525" y2="529.208" gradientTransform="matrix(1 0 0 1 0 -518)">
		<stop  offset="0" style="stop-color:#000000"/>
		<stop  offset="1" style="stop-color:#808285"/>
	</linearGradient>
	<path class="st11" d="M75,0.3c13.8,0,25,11.1,25,24.7S88.8,49.7,75,49.7S50,38.7,50,25C50,11.3,61.2,0.3,75,0.3z"/>
	<g>
		<path d="M75,49.3c-13.5,0-24.6-10.9-24.6-24.3S61.5,0.7,75,0.7S99.6,11.6,99.6,25C99.6,38.4,88.5,49.3,75,49.3z"/>
		<path d="M75,0.8c13.5,0,24.5,10.8,24.5,24.2c0,13.3-11,24.2-24.5,24.2c-13.5,0-24.5-10.8-24.5-24.2S61.5,0.8,75,0.8 M75,0.6
			c-13.6,0-24.7,11-24.7,24.4S61.4,49.4,75,49.4s24.7-11,24.7-24.4S88.6,0.6,75,0.6L75,0.6z"/>
	</g>
	<path d="M75.2,8.3c9.5,0,17.1,7.6,17.1,16.9c0,9.4-7.7,16.9-17.1,16.9c-9.4,0-17.1-7.6-17.1-16.9C58.1,15.9,65.8,8.3,75.2,8.3z"/>
	
		<linearGradient id="SVGID_10_" gradientUnits="userSpaceOnUse" x1="58.3853" y1="524.5276" x2="86.1939" y2="555.4121" gradientTransform="matrix(1 0 0 1 0 -518)">
		<stop  offset="0" style="stop-color:#E7E8E9"/>
		<stop  offset="0.1124" style="stop-color:#EBECED"/>
		<stop  offset="0.5951" style="stop-color:#FAFAFA"/>
		<stop  offset="1" style="stop-color:#FFFFFF"/>
	</linearGradient>
	<path class="st12" d="M75,8.1c9.5,0,17.1,7.6,17.1,16.9c0,9.4-7.7,16.9-17.1,16.9S57.9,34.3,57.9,25C57.9,15.6,65.5,8.1,75,8.1z"/>
	<path d="M72.2,10.8l-0.3-1.9c1-0.2,1.9-0.2,2.9-0.2c1,0,1.9,0.1,2.9,0.2l-0.3,1.9c-0.8-0.1-1.7-0.2-2.5-0.2
		C73.9,10.5,73,10.6,72.2,10.8L72.2,10.8z M79.7,11.4l0.7-1.8c0.9,0.3,1.8,0.7,2.6,1.2c0.8,0.5,1.6,1,2.4,1.6l-1.3,1.5
		C82.8,12.9,81.3,12,79.7,11.4L79.7,11.4z M85.9,15.7l1.5-1.3c0.6,0.7,1.2,1.5,1.6,2.3c0.5,0.8,0.9,1.7,1.2,2.6L88.4,20
		C87.8,18.4,86.9,16.9,85.9,15.7L85.9,15.7z M89,22.4l2-0.3c0.2,0.9,0.2,1.9,0.2,2.8c0,0.9-0.1,1.9-0.2,2.8l-2-0.3
		c0.1-0.8,0.2-1.6,0.2-2.5C89.3,24.1,89.2,23.2,89,22.4L89,22.4z M88.4,29.8l1.9,0.7c-0.3,0.9-0.7,1.8-1.2,2.6
		c-0.5,0.8-1,1.6-1.6,2.3l-1.5-1.3C87,32.9,87.8,31.4,88.4,29.8L88.4,29.8z M84.1,35.9l1.3,1.5c-0.7,0.6-1.5,1.2-2.4,1.6
		c-0.8,0.5-1.7,0.9-2.6,1.2l-0.7-1.8C81.4,37.9,82.8,37,84.1,35.9L84.1,35.9z M77.3,39.1l0.3,1.9c-1,0.2-1.9,0.2-2.9,0.2
		c-1,0-1.9-0.1-2.9-0.2l0.3-1.9c0.8,0.1,1.6,0.2,2.5,0.2C75.6,39.3,76.5,39.3,77.3,39.1L77.3,39.1z M69.8,38.5l-0.7,1.8
		c-0.9-0.3-1.8-0.7-2.6-1.2c-0.8-0.5-1.6-1-2.4-1.6l1.3-1.5C66.7,37.1,68.2,37.9,69.8,38.5L69.8,38.5z M63.6,34.2l-1.5,1.2
		c-0.6-0.7-1.2-1.5-1.6-2.3c-0.5-0.8-0.9-1.7-1.2-2.6l1.8-0.7C61.6,31.5,62.5,33,63.6,34.2L63.6,34.2z M60.4,27.5l-1.9,0.3
		c-0.2-0.9-0.2-1.9-0.2-2.8s0.1-1.9,0.2-2.8l1.9,0.3c-0.1,0.8-0.2,1.6-0.2,2.5S60.2,26.6,60.4,27.5L60.4,27.5z M61,20l-1.8-0.7
		c0.3-0.9,0.7-1.8,1.2-2.6c0.5-0.8,1-1.6,1.6-2.3l1.5,1.2C62.5,17,61.6,18.4,61,20L61,20z M65.4,13.9l-1.3-1.5
		c0.7-0.6,1.5-1.2,2.4-1.6c0.8-0.5,1.7-0.9,2.6-1.2l0.7,1.8C68.1,12,66.7,12.9,65.4,13.9z"/>
	<path d="M72.4,10.8l-0.3-1.9C73,8.7,74,8.6,75,8.6c1,0,1.9,0.1,2.9,0.2l-0.3,1.9c-0.8-0.1-1.7-0.2-2.5-0.2
		C74.1,10.6,73.3,10.7,72.4,10.8L72.4,10.8z M80,11.5l0.7-1.8c0.9,0.3,1.8,0.7,2.6,1.2s1.6,1,2.4,1.6L84.3,14
		C83,12.9,81.6,12,80,11.5L80,11.5z M86.1,15.7l1.5-1.3c0.6,0.7,1.2,1.5,1.6,2.3c0.5,0.8,0.9,1.7,1.2,2.6l-1.9,0.7
		C88,18.5,87.2,17,86.1,15.7L86.1,15.7z M89.3,22.5l2-0.3c0.2,0.9,0.2,1.9,0.2,2.8c0,0.9-0.1,1.9-0.2,2.8l-2-0.3
		c0.1-0.8,0.2-1.6,0.2-2.5C89.5,24.1,89.4,23.3,89.3,22.5L89.3,22.5z M88.7,29.9l1.9,0.7c-0.3,0.9-0.7,1.8-1.2,2.6
		c-0.5,0.8-1,1.6-1.6,2.3l-1.5-1.3C87.2,32.9,88.1,31.5,88.7,29.9L88.7,29.9z M84.4,36l1.3,1.5c-0.7,0.6-1.5,1.2-2.4,1.6
		c-0.8,0.5-1.7,0.9-2.6,1.2L80,38.5C81.6,37.9,83.1,37.1,84.4,36L84.4,36z M77.6,39.2l0.3,1.9c-1,0.2-1.9,0.2-2.9,0.2
		c-1,0-1.9-0.1-2.9-0.2l0.3-1.9c0.8,0.1,1.6,0.2,2.5,0.2C75.9,39.4,76.7,39.3,77.6,39.2L77.6,39.2z M70,38.6l-0.7,1.8
		c-0.9-0.3-1.8-0.7-2.6-1.2c-0.8-0.5-1.6-1-2.4-1.6l1.3-1.5C66.9,37.1,68.4,38,70,38.6L70,38.6z M63.9,34.3l-1.5,1.2
		c-0.6-0.7-1.2-1.5-1.6-2.3c-0.5-0.8-0.9-1.7-1.2-2.6l1.8-0.7C61.9,31.5,62.8,33,63.9,34.3L63.9,34.3z M60.6,27.5l-1.9,0.3
		c-0.2-0.9-0.2-1.9-0.2-2.8c0-0.9,0.1-1.9,0.2-2.8l1.9,0.3c-0.1,0.8-0.2,1.6-0.2,2.5S60.5,26.7,60.6,27.5L60.6,27.5z M61.3,20.1
		l-1.8-0.7c0.3-0.9,0.7-1.8,1.2-2.6c0.5-0.8,1-1.6,1.6-2.3l1.5,1.2C62.7,17,61.9,18.5,61.3,20.1L61.3,20.1z M65.6,14l-1.3-1.5
		c0.7-0.6,1.5-1.2,2.4-1.6c0.8-0.5,1.7-0.9,2.6-1.2l0.7,1.8C68.4,12,66.9,12.9,65.6,14z"/>
	
		<radialGradient id="SVGID_11_" cx="81.9044" cy="554.0145" r="32.6379" gradientTransform="matrix(1.0106 0 0 1 -0.2504 -518)" gradientUnits="userSpaceOnUse">
		<stop  offset="0" style="stop-color:#808285"/>
		<stop  offset="0.2642" style="stop-color:#626466"/>
		<stop  offset="0.8393" style="stop-color:#161717"/>
		<stop  offset="1" style="stop-color:#000000"/>
	</radialGradient>
	<path class="st13" d="M75,38.8c7.7,0,13.9-6.2,13.9-13.8S82.7,11.2,75,11.2c-7.7,0-13.9,6.2-13.9,13.8S67.3,38.8,75,38.8z"/>
	<g>
		<g>
			<path d="M86.4,5.9c0.5,0.3,0.8,1,0.4,1.6c-0.3,0.6-1,0.7-1.6,0.4c-0.6-0.3-0.8-1-0.4-1.6S85.8,5.6,86.4,5.9z"/>
			<path d="M97.6,25.2c0,0.6-0.5,1.2-1.2,1.2c-0.6,0-1.2-0.5-1.2-1.2c0-0.6,0.5-1.2,1.2-1.2C97.1,24,97.6,24.5,97.6,25.2z"/>
			<path d="M86.4,44.4c-0.6,0.3-1.3,0.1-1.6-0.4c-0.3-0.5-0.1-1.3,0.4-1.6c0.6-0.3,1.3-0.1,1.6,0.4C87.2,43.4,87,44.1,86.4,44.4z"/>
			<path d="M64,44.4c-0.6-0.3-0.8-1-0.4-1.6c0.3-0.5,1-0.7,1.6-0.4c0.5,0.3,0.8,1,0.4,1.6C65.2,44.5,64.5,44.7,64,44.4z"/>
			<path d="M52.7,25.2c0-0.6,0.5-1.2,1.2-1.2c0.6,0,1.2,0.5,1.2,1.2c0,0.6-0.5,1.2-1.2,1.2C53.3,26.3,52.7,25.8,52.7,25.2z"/>
			<path d="M64,5.9c0.6-0.3,1.3-0.1,1.6,0.4c0.3,0.5,0.1,1.3-0.4,1.6c-0.5,0.3-1.3,0.1-1.6-0.4C63.2,7,63.4,6.3,64,5.9z"/>
		</g>
		<g>
			<path d="M75.2,6.8c-1.1,0-1.6,0.1-2.8,0.2c-1.3,0.2-2.2-0.7-2.5-1.7l-1.1-4.5C70.8,0.3,72.9,0,75,0c2.3,0,4.5,0.3,6.6,0.8
				l-1.1,4.4C80.2,6.3,79.3,7.2,78,7C76.8,6.9,76.3,6.8,75.2,6.8z"/>
			<path d="M91.3,16c-0.5-0.9-0.9-1.4-1.6-2.3c-0.8-1-0.5-2.2,0.3-3l3.2-3.1c2.9,3,5.1,6.7,6.2,10.9l-4.2,1.2
				c-1.1,0.3-2.3,0-2.8-1.2C92,17.4,91.8,16.9,91.3,16z"/>
			<path d="M91.3,34.4c0.5-0.9,0.8-1.4,1.2-2.6c0.5-1.2,1.7-1.5,2.8-1.2l4.1,1.2c-1.2,4.1-3.4,7.8-6.3,10.8l-3-2.9
				c-0.8-0.8-1.1-1.9-0.3-3C90.4,35.7,90.7,35.3,91.3,34.4z"/>
			<path d="M75.2,43.5c1.1,0,1.6-0.1,2.8-0.2c1.3-0.2,2.2,0.7,2.5,1.7l1,4.1C79.4,49.7,77.2,50,75,50c-2.1,0-4.2-0.3-6.1-0.7l1-4.2
				c0.3-1.1,1.2-1.9,2.5-1.7C73.6,43.5,74.1,43.5,75.2,43.5z"/>
			<path d="M59.1,34.4c0.5,0.9,0.9,1.4,1.6,2.3c0.8,1,0.5,2.2-0.3,3l-3.2,3.1c-3-3-5.3-6.7-6.5-10.8l4.4-1.3c1.1-0.3,2.3,0,2.8,1.2
				C58.3,32.9,58.5,33.4,59.1,34.4z"/>
			<path d="M59.1,16c-0.5,0.9-0.8,1.4-1.2,2.6c-0.5,1.2-1.7,1.5-2.8,1.2l-4.5-1.3c1.2-4.2,3.4-8,6.4-11l3.4,3.2
				c0.8,0.8,1.1,1.9,0.3,3C60,14.6,59.7,15,59.1,16z"/>
		</g>
	</g>
	
		<linearGradient id="SVGID_12_" gradientUnits="userSpaceOnUse" x1="88.1473" y1="563.233" x2="61.9764" y2="522.9333" gradientTransform="matrix(1 0 0 1 0 -518)">
		<stop  offset="0" style="stop-color:#808285"/>
		<stop  offset="6.044060e-02" style="stop-color:#8B8C8F"/>
		<stop  offset="0.3695" style="stop-color:#BCBEBF"/>
		<stop  offset="0.6403" style="stop-color:#E1E1E2"/>
		<stop  offset="0.8596" style="stop-color:#F7F7F7"/>
		<stop  offset="1" style="stop-color:#FFFFFF"/>
	</linearGradient>
	<path class="st14" d="M75,6.6c-1.1,0-1.6,0.1-2.8,0.2C70.9,7,70,6.2,69.7,5.1l-1.1-4.3C70.7,0.3,72.8,0,75,0s4.3,0.3,6.4,0.8
		l-1.1,4.3C80,6.2,79.1,7,77.8,6.8C76.6,6.7,76.1,6.6,75,6.6L75,6.6z M91.1,15.8c-0.5-0.9-0.9-1.4-1.6-2.3c-0.8-1-0.5-2.2,0.3-3
		L93,7.5c3,3,5.2,6.7,6.4,10.9l-4.3,1.2c-1.1,0.3-2.3,0-2.8-1.2C91.8,17.2,91.6,16.7,91.1,15.8L91.1,15.8z M91.1,34.2
		c0.5-0.9,0.8-1.4,1.2-2.6c0.5-1.2,1.7-1.5,2.8-1.2l4.3,1.2c-1.2,4.2-3.4,7.9-6.4,10.9l-3.2-3c-0.8-0.8-1.1-1.9-0.3-3
		C90.2,35.5,90.5,35.1,91.1,34.2L91.1,34.2z M75,43.4c1.1,0,1.6-0.1,2.8-0.2c1.3-0.2,2.2,0.7,2.5,1.7l1.1,4.3
		c-2,0.5-4.2,0.8-6.4,0.8c-2.2,0-4.3-0.3-6.4-0.8l1.1-4.3c0.3-1.1,1.1-1.9,2.5-1.7C73.4,43.3,73.9,43.4,75,43.4L75,43.4z M58.9,34.2
		c0.5,0.9,0.9,1.4,1.6,2.3c0.8,1,0.5,2.2-0.3,3L57,42.5c-3-3-5.2-6.7-6.4-10.9l4.3-1.2c1.1-0.3,2.3,0,2.8,1.2
		C58.2,32.8,58.4,33.2,58.9,34.2L58.9,34.2z M58.9,15.8c-0.5,0.9-0.8,1.4-1.2,2.6c-0.5,1.2-1.7,1.5-2.8,1.2l-4.3-1.2
		c1.2-4.2,3.4-7.9,6.4-10.9l3.2,3.1c0.8,0.8,1.1,1.9,0.3,3C59.8,14.4,59.5,14.9,58.9,15.8z"/>
	
		<linearGradient id="SVGID_13_" gradientUnits="userSpaceOnUse" x1="56.1421" y1="525.4147" x2="93.5127" y2="560.2634" gradientTransform="matrix(1 0 0 1 0 -518)">
		<stop  offset="0" style="stop-color:#E7E8E9"/>
		<stop  offset="1" style="stop-color:#FFFFFF"/>
	</linearGradient>
	<path class="st15" d="M91.1,15.8c-0.5-0.9-0.9-1.4-1.6-2.3c-0.8-1-0.5-2.2,0.3-3l2.9-2.8c2.9,3,5.1,6.6,6.3,10.7L95,19.6
		c-1.1,0.3-2.3,0-2.8-1.2C91.8,17.2,91.6,16.7,91.1,15.8L91.1,15.8z M91.1,34.2c0.5-0.9,0.8-1.4,1.2-2.6c0.5-1.2,1.7-1.5,2.8-1.2
		l3.9,1.1c-1.1,4.1-3.3,7.8-6.3,10.7l-2.9-2.8c-0.8-0.8-1.1-1.9-0.3-3C90.2,35.5,90.5,35.1,91.1,34.2L91.1,34.2z M75,43.4
		c1.1,0,1.6-0.1,2.8-0.2c1.3-0.2,2.2,0.7,2.5,1.7l1,3.9c-2,0.5-4.1,0.8-6.3,0.8c-2.2,0-4.3-0.3-6.3-0.8l1-3.9
		c0.3-1.1,1.1-1.9,2.5-1.7C73.4,43.3,73.9,43.4,75,43.4L75,43.4z M58.9,34.2c0.5,0.9,0.9,1.4,1.6,2.3c0.8,1,0.5,2.2-0.3,3l-2.9,2.8
		c-2.9-3-5.1-6.6-6.3-10.7l3.9-1.1c1.1-0.3,2.3,0,2.8,1.2C58.2,32.8,58.4,33.2,58.9,34.2L58.9,34.2z M58.9,15.8
		c-0.5,0.9-0.8,1.4-1.2,2.6c-0.5,1.2-1.7,1.5-2.8,1.2l-3.9-1.1c1.1-4.1,3.3-7.8,6.3-10.7l2.9,2.8c0.8,0.8,1.1,1.9,0.3,3
		C59.8,14.4,59.5,14.9,58.9,15.8L58.9,15.8z M75,6.6c-1.1,0-1.6,0.1-2.8,0.2C70.9,7,70,6.2,69.7,5.1l-1-3.9c2-0.5,4.1-0.8,6.3-0.8
		s4.2,0.3,6.3,0.8l-1,3.9C80,6.2,79.1,7,77.8,6.8C76.6,6.7,76.1,6.6,75,6.6z"/>
	<path d="M75,37.7c7.1,0,12.8-5.7,12.8-12.7S82.1,12.3,75,12.3c-7.1,0-12.8,5.7-12.8,12.7S67.9,37.7,75,37.7z"/>
	<path d="M75,11.2c4.2,0,8,1.9,10.6,4.8c-2.6-2.9-6.3-4.6-10.4-4.6c-7.7,0-13.9,6.2-13.9,13.8c0,3.4,1.3,6.5,3.3,9
		c-2.2-2.4-3.5-5.6-3.5-9.1C61.1,17.4,67.3,11.2,75,11.2z"/>
</g>
<g>
	
		<linearGradient id="SVGID_14_" gradientUnits="userSpaceOnUse" x1="272.5134" y1="487.029" x2="231.4078" y2="459.3029" gradientTransform="matrix(1 -4.802117e-04 4.802117e-04 1 -77.0801 -447.9682)">
		<stop  offset="0" style="stop-color:#004063"/>
		<stop  offset="1" style="stop-color:#009CE0"/>
	</linearGradient>
	<path class="st16" d="M175,0.3c13.8,0,25,11.1,25,24.7c0,13.7-11.2,24.7-25,24.8c-13.8,0-25-11.1-25-24.7
		C150,11.3,161.2,0.3,175,0.3z"/>
	<path class="st17" d="M175,49.4c13.6,0,24.7-11,24.6-24.4c0-13.4-11.1-24.4-24.7-24.4c-13.6,0-24.6,11-24.6,24.4
		S161.4,49.4,175,49.4z"/>
	<path class="st18" d="M175.2,8.3c9.5,0,17.1,7.6,17.1,16.9c0,9.4-7.7,16.9-17.1,16.9c-9.4,0-17.1-7.6-17.1-16.9
		C158.1,15.9,165.8,8.3,175.2,8.3z"/>
	
		<linearGradient id="SVGID_15_" gradientUnits="userSpaceOnUse" x1="235.2418" y1="454.6395" x2="263.0513" y2="485.525" gradientTransform="matrix(1 -4.802117e-04 4.802117e-04 1 -77.0801 -447.9682)">
		<stop  offset="0" style="stop-color:#E7E8E9"/>
		<stop  offset="0.1124" style="stop-color:#EBECED"/>
		<stop  offset="0.5951" style="stop-color:#FAFAFA"/>
		<stop  offset="1" style="stop-color:#FFFFFF"/>
	</linearGradient>
	<path class="st19" d="M175,8.1c9.5,0,17.1,7.6,17.1,16.9c0,9.4-7.7,16.9-17.1,16.9c-9.5,0-17.1-7.6-17.1-16.9
		C157.9,15.7,165.6,8.1,175,8.1z"/>
	<path class="st18" d="M172.2,10.8l-0.3-1.9c0.9-0.2,1.9-0.2,2.9-0.2s1.9,0.1,2.9,0.2l-0.3,1.9c-0.8-0.1-1.7-0.2-2.5-0.2
		C173.9,10.6,173,10.6,172.2,10.8L172.2,10.8z M179.7,11.4l0.7-1.8c0.9,0.3,1.8,0.7,2.6,1.2s1.6,1,2.4,1.6l-1.3,1.5
		C182.8,12.9,181.3,12,179.7,11.4L179.7,11.4z M185.9,15.7l1.5-1.3c0.6,0.7,1.2,1.5,1.6,2.3c0.5,0.8,0.9,1.7,1.2,2.6l-1.9,0.7
		C187.8,18.4,187,16.9,185.9,15.7L185.9,15.7z M189.1,22.4l2-0.3c0.2,0.9,0.2,1.9,0.2,2.8c0,0.9-0.1,1.9-0.2,2.8l-2-0.3
		c0.1-0.8,0.2-1.6,0.2-2.5C189.3,24.1,189.2,23.2,189.1,22.4L189.1,22.4z M188.4,29.8l1.9,0.7c-0.3,0.9-0.7,1.8-1.2,2.6
		c-0.5,0.8-1,1.6-1.6,2.3l-1.5-1.3C187,32.9,187.8,31.4,188.4,29.8L188.4,29.8z M184.1,35.9l1.3,1.5c-0.7,0.6-1.5,1.2-2.4,1.6
		c-0.8,0.5-1.7,0.9-2.6,1.2l-0.7-1.8C181.4,37.9,182.9,37,184.1,35.9L184.1,35.9z M177.3,39.1l0.3,1.9c-1,0.2-1.9,0.2-2.9,0.3
		c-1,0-1.9-0.1-2.9-0.2l0.3-1.9c0.8,0.1,1.6,0.2,2.5,0.2C175.6,39.4,176.5,39.3,177.3,39.1L177.3,39.1z M169.8,38.5l-0.7,1.8
		c-0.9-0.3-1.8-0.7-2.6-1.2c-0.8-0.5-1.6-1-2.4-1.6l1.3-1.5C166.7,37.1,168.2,37.9,169.8,38.5L169.8,38.5z M163.6,34.3l-1.5,1.2
		c-0.6-0.7-1.2-1.5-1.6-2.3c-0.5-0.8-0.9-1.7-1.2-2.6l1.8-0.7C161.7,31.5,162.5,33,163.6,34.3L163.6,34.3z M160.4,27.5l-1.9,0.3
		c-0.2-0.9-0.2-1.9-0.2-2.9c0-0.9,0.1-1.9,0.2-2.8l1.9,0.3c-0.1,0.8-0.2,1.6-0.2,2.5C160.2,25.8,160.2,26.7,160.4,27.5L160.4,27.5z
		 M161,20l-1.8-0.7c0.3-0.9,0.7-1.8,1.2-2.6c0.5-0.8,1-1.6,1.6-2.3l1.5,1.2C162.5,17,161.6,18.5,161,20L161,20z M165.4,13.9
		l-1.3-1.5c0.7-0.6,1.5-1.2,2.4-1.6c0.8-0.5,1.7-0.9,2.6-1.2l0.7,1.8C168.1,12,166.7,12.9,165.4,13.9z"/>
	<path class="st17" d="M172.4,10.8l-0.3-1.9c1-0.2,1.9-0.2,2.9-0.2c1,0,1.9,0.1,2.9,0.2l-0.3,1.9c-0.8-0.1-1.7-0.2-2.5-0.2
		C174.1,10.6,173.3,10.7,172.4,10.8L172.4,10.8z M180,11.5l0.7-1.8c0.9,0.3,1.8,0.7,2.6,1.2s1.6,1,2.4,1.6l-1.3,1.5
		C183,12.9,181.6,12,180,11.5L180,11.5z M186.1,15.7l1.5-1.3c0.6,0.7,1.2,1.5,1.6,2.3c0.5,0.8,0.9,1.7,1.2,2.6l-1.9,0.7
		C188,18.5,187.2,17,186.1,15.7L186.1,15.7z M189.3,22.5l2-0.3c0.2,0.9,0.2,1.9,0.3,2.8c0,0.9-0.1,1.9-0.2,2.8l-2-0.3
		c0.1-0.8,0.2-1.6,0.2-2.5C189.5,24.1,189.4,23.3,189.3,22.5L189.3,22.5z M188.7,29.9l1.9,0.7c-0.3,0.9-0.7,1.8-1.2,2.6
		c-0.5,0.8-1,1.6-1.6,2.3l-1.5-1.3C187.2,32.9,188.1,31.5,188.7,29.9L188.7,29.9z M184.4,36l1.3,1.5c-0.7,0.6-1.5,1.2-2.4,1.6
		c-0.8,0.5-1.7,0.9-2.6,1.2l-0.7-1.8C181.6,37.9,183.1,37.1,184.4,36L184.4,36z M177.6,39.2l0.3,1.9c-1,0.2-1.9,0.2-2.9,0.3
		c-1,0-1.9-0.1-2.9-0.2l0.3-1.9c0.8,0.1,1.6,0.2,2.5,0.2C175.9,39.4,176.7,39.3,177.6,39.2L177.6,39.2z M170.1,38.6l-0.7,1.8
		c-0.9-0.3-1.8-0.7-2.6-1.2c-0.8-0.5-1.6-1-2.4-1.6l1.3-1.5C167,37.1,168.4,38,170.1,38.6L170.1,38.6z M163.9,34.3l-1.5,1.2
		c-0.6-0.7-1.2-1.5-1.6-2.3c-0.5-0.8-0.9-1.7-1.2-2.6l1.8-0.7C161.9,31.6,162.8,33,163.9,34.3L163.9,34.3z M160.7,27.5l-1.9,0.3
		c-0.2-0.9-0.2-1.9-0.2-2.8c0-0.9,0.1-1.9,0.2-2.8l1.9,0.3c-0.1,0.8-0.2,1.6-0.2,2.5C160.4,25.9,160.5,26.7,160.7,27.5L160.7,27.5z
		 M161.3,20.1l-1.8-0.7c0.3-0.9,0.7-1.8,1.2-2.6c0.5-0.8,1-1.6,1.6-2.3l1.5,1.2C162.7,17,161.9,18.5,161.3,20.1L161.3,20.1z
		 M165.6,14l-1.3-1.5c0.7-0.6,1.5-1.2,2.4-1.6c0.8-0.5,1.7-0.9,2.6-1.2l0.7,1.8C168.4,12,166.9,12.9,165.6,14z"/>
	<path class="st17" d="M175,38.8c7.7,0,13.9-6.2,13.9-13.8s-6.3-13.8-13.9-13.8c-7.7,0-13.9,6.2-13.9,13.8
		C161.1,32.6,167.3,38.8,175,38.8z"/>
	
		<linearGradient id="SVGID_16_" gradientUnits="userSpaceOnUse" x1="265.0083" y1="493.3411" x2="238.8368" y2="453.0406" gradientTransform="matrix(1 -4.802117e-04 4.802117e-04 1 -77.0801 -447.9682)">
		<stop  offset="0" style="stop-color:#808285"/>
		<stop  offset="6.044060e-02" style="stop-color:#8B8C8F"/>
		<stop  offset="0.3695" style="stop-color:#BCBEBF"/>
		<stop  offset="0.6403" style="stop-color:#E1E1E2"/>
		<stop  offset="0.8596" style="stop-color:#F7F7F7"/>
		<stop  offset="1" style="stop-color:#FFFFFF"/>
	</linearGradient>
	<path class="st20" d="M175,6.6c-1.1,0-1.6,0.1-2.8,0.2c-1.3,0.2-2.2-0.7-2.5-1.7l-1.1-4.3c2-0.5,4.2-0.8,6.4-0.8
		c2.2,0,4.3,0.3,6.4,0.8l-1.1,4.3c-0.3,1.1-1.2,1.9-2.5,1.7C176.6,6.7,176.1,6.6,175,6.6L175,6.6z M191.1,15.8
		c-0.5-0.9-0.9-1.4-1.6-2.3c-0.8-1-0.5-2.2,0.3-3l3.2-3.1c3,3,5.2,6.7,6.4,10.9l-4.3,1.2c-1.1,0.3-2.3,0-2.8-1.2
		C191.8,17.2,191.6,16.7,191.1,15.8L191.1,15.8z M191.1,34.2c0.5-0.9,0.8-1.4,1.2-2.6c0.5-1.2,1.7-1.5,2.8-1.2l4.3,1.2
		c-1.2,4.2-3.4,7.9-6.3,10.9l-3.2-3.1c-0.8-0.8-1.1-1.9-0.3-3C190.2,35.5,190.5,35.1,191.1,34.2L191.1,34.2z M175,43.4
		c1.1,0,1.6-0.1,2.8-0.2c1.3-0.2,2.2,0.7,2.5,1.7l1.1,4.3c-2,0.5-4.2,0.8-6.4,0.8s-4.3-0.3-6.3-0.8l1.1-4.3c0.3-1.1,1.1-1.9,2.5-1.7
		C173.4,43.3,173.9,43.4,175,43.4L175,43.4z M158.9,34.2c0.5,0.9,0.9,1.4,1.6,2.3c0.8,1,0.5,2.2-0.3,3l-3.2,3.1
		c-3-3-5.2-6.7-6.4-10.9l4.3-1.2c1.1-0.3,2.3,0,2.8,1.2C158.2,32.8,158.4,33.3,158.9,34.2L158.9,34.2z M158.9,15.8
		c-0.5,0.9-0.8,1.4-1.2,2.6c-0.5,1.2-1.7,1.5-2.8,1.2l-4.3-1.2c1.2-4.2,3.4-7.9,6.4-10.9l3.2,3.1c0.8,0.8,1.1,1.9,0.3,3
		C159.8,14.5,159.5,14.9,158.9,15.8z"/>
	
		<linearGradient id="SVGID_17_" gradientUnits="userSpaceOnUse" x1="233.0086" y1="455.5172" x2="270.3811" y2="490.3676" gradientTransform="matrix(1 -4.802117e-04 4.802117e-04 1 -77.0801 -447.9682)">
		<stop  offset="0" style="stop-color:#E7E8E9"/>
		<stop  offset="1" style="stop-color:#FFFFFF"/>
	</linearGradient>
	<path class="st21" d="M191.1,15.8c-0.5-0.9-0.9-1.4-1.6-2.3c-0.8-1-0.5-2.2,0.3-3l2.9-2.8c2.9,2.9,5.1,6.6,6.3,10.7l-3.9,1.1
		c-1.1,0.3-2.3,0-2.8-1.2C191.8,17.2,191.6,16.7,191.1,15.8L191.1,15.8z M191.1,34.2c0.5-0.9,0.8-1.4,1.2-2.6
		c0.5-1.2,1.7-1.5,2.8-1.2l3.9,1.1c-1.1,4.1-3.3,7.8-6.3,10.7l-2.9-2.8c-0.8-0.8-1.1-1.9-0.3-3C190.2,35.5,190.5,35.1,191.1,34.2
		L191.1,34.2z M175,43.4c1.1,0,1.6-0.1,2.8-0.2c1.3-0.2,2.2,0.7,2.5,1.7l1,3.9c-2,0.5-4.1,0.8-6.3,0.8s-4.3-0.3-6.3-0.8l1-3.9
		c0.3-1.1,1.1-1.9,2.5-1.7C173.4,43.3,173.9,43.4,175,43.4L175,43.4z M158.9,34.2c0.5,0.9,0.9,1.4,1.6,2.3c0.8,1,0.5,2.2-0.3,3
		l-2.9,2.8c-2.9-3-5.1-6.6-6.3-10.7l3.9-1.1c1.1-0.3,2.3,0,2.8,1.2C158.2,32.8,158.4,33.3,158.9,34.2L158.9,34.2z M158.9,15.8
		c-0.5,0.9-0.8,1.4-1.2,2.6c-0.5,1.2-1.7,1.5-2.8,1.2l-3.9-1.1c1.1-4.1,3.3-7.8,6.3-10.7l2.9,2.8c0.8,0.8,1.1,1.9,0.3,3
		C159.8,14.5,159.5,14.9,158.9,15.8L158.9,15.8z M175,6.6c-1.1,0-1.6,0.1-2.8,0.2c-1.3,0.2-2.2-0.7-2.5-1.7l-1-3.9
		c2-0.5,4.1-0.8,6.3-0.8s4.2,0.3,6.2,0.8l-1,3.9c-0.3,1.1-1.2,1.9-2.5,1.7C176.6,6.7,176.1,6.6,175,6.6z"/>
	<path class="st17" d="M175,37.7c7.1,0,12.8-5.7,12.8-12.7c0-7-5.8-12.7-12.8-12.7c-7.1,0-12.8,5.7-12.8,12.7
		C162.2,32,168,37.7,175,37.7z"/>
	<path class="st17" d="M175,11.2c4.2,0,8,1.9,10.6,4.8c-2.6-2.9-6.3-4.6-10.4-4.6c-7.7,0-13.9,6.2-13.9,13.8c0,3.4,1.3,6.5,3.3,9
		c-2.2-2.4-3.5-5.6-3.5-9.1C161.1,17.4,167.3,11.2,175,11.2z"/>
</g>
<g>
	
		<linearGradient id="SVGID_18_" gradientUnits="userSpaceOnUse" x1="-2.1957" y1="471.0417" x2="-43.3093" y2="443.3102" gradientTransform="matrix(1 3.494883e-03 -3.494883e-03 1 49.4557 -432.0444)">
		<stop  offset="0" style="stop-color:#4B0158"/>
		<stop  offset="1" style="stop-color:#D80081"/>
	</linearGradient>
	<path class="st22" d="M25.1,0.2c13.8,0,25,11.2,24.9,24.8c0,13.7-11.3,24.7-25.1,24.7S0,38.6,0,24.9C0,11.2,11.3,0.2,25.1,0.2z"/>
	<path class="st23" d="M24.9,49.4c13.6,0,24.7-10.9,24.7-24.3c0-13.4-11-24.5-24.6-24.5C11.5,0.5,0.4,11.4,0.3,24.9
		C0.3,38.3,11.3,49.3,24.9,49.4z"/>
	<path class="st24" d="M25.3,8.2c9.5,0,17.1,7.7,17,17c0,9.4-7.7,16.9-17.2,16.9c-9.4,0-17.1-7.6-17-17C8.1,15.8,15.8,8.2,25.3,8.2z
		"/>
	
		<linearGradient id="SVGID_19_" gradientUnits="userSpaceOnUse" x1="-39.4935" y1="438.6358" x2="-11.6742" y2="469.5324" gradientTransform="matrix(1 3.494883e-03 -3.494883e-03 1 49.4557 -432.0444)">
		<stop  offset="0" style="stop-color:#E7E8E9"/>
		<stop  offset="0.1124" style="stop-color:#EBECED"/>
		<stop  offset="0.5951" style="stop-color:#FAFAFA"/>
		<stop  offset="1" style="stop-color:#FFFFFF"/>
	</linearGradient>
	<path class="st25" d="M25,8c9.5,0,17.1,7.7,17,17c0,9.4-7.7,16.9-17.2,16.9c-9.5,0-17.1-7.6-17-17C7.9,15.6,15.6,8,25,8z"/>
	<path class="st24" d="M22.2,10.7l-0.3-1.9c1-0.2,1.9-0.2,2.9-0.2s1.9,0.1,2.9,0.3l-0.3,1.9c-0.8-0.1-1.7-0.2-2.5-0.2
		C23.9,10.5,23.1,10.6,22.2,10.7L22.2,10.7z M29.7,11.4l0.7-1.8c0.9,0.3,1.8,0.7,2.6,1.2c0.8,0.5,1.6,1,2.4,1.6l-1.3,1.5
		C32.8,12.8,31.3,12,29.7,11.4L29.7,11.4z M35.9,15.7l1.5-1.3c0.6,0.7,1.2,1.5,1.6,2.4c0.5,0.8,0.9,1.7,1.2,2.6L38.4,20
		C37.8,18.4,37,17,35.9,15.7L35.9,15.7z M39,22.4l2-0.3c0.2,0.9,0.2,1.9,0.2,2.8s-0.1,1.9-0.3,2.8l-2-0.3c0.1-0.8,0.2-1.6,0.2-2.5
		C39.3,24.1,39.2,23.3,39,22.4L39,22.4z M38.4,29.9l1.9,0.7c-0.3,0.9-0.8,1.8-1.2,2.6c-0.5,0.8-1,1.6-1.7,2.3l-1.5-1.3
		C36.9,32.9,37.8,31.5,38.4,29.9L38.4,29.9z M34.1,36l1.3,1.5c-0.7,0.6-1.5,1.1-2.4,1.6c-0.8,0.5-1.7,0.9-2.6,1.2l-0.7-1.8
		C31.3,37.9,32.8,37,34.1,36L34.1,36z M27.3,39.1l0.3,1.9c-1,0.2-1.9,0.2-2.9,0.2s-1.9-0.1-2.9-0.3l0.3-1.9c0.8,0.1,1.6,0.2,2.5,0.2
		C25.5,39.3,26.4,39.3,27.3,39.1L27.3,39.1z M19.7,38.5l-0.7,1.8c-0.9-0.3-1.8-0.7-2.6-1.2c-0.8-0.5-1.6-1-2.4-1.6l1.3-1.5
		C16.6,37,18.1,37.9,19.7,38.5L19.7,38.5z M13.6,34.2l-1.5,1.2c-0.6-0.7-1.2-1.5-1.6-2.4c-0.5-0.8-0.9-1.7-1.2-2.6l1.8-0.6
		C11.6,31.5,12.5,32.9,13.6,34.2L13.6,34.2z M10.4,27.4l-1.9,0.3c-0.2-0.9-0.2-1.9-0.2-2.8c0-0.9,0.1-1.9,0.3-2.8l1.9,0.3
		c-0.1,0.8-0.2,1.6-0.2,2.5C10.1,25.7,10.2,26.6,10.4,27.4L10.4,27.4z M11,20l-1.8-0.7c0.3-0.9,0.8-1.8,1.2-2.6
		c0.5-0.8,1-1.6,1.7-2.3l1.5,1.2C12.5,16.9,11.6,18.4,11,20L11,20z M15.4,13.9l-1.3-1.5c0.7-0.6,1.5-1.1,2.4-1.6
		c0.8-0.5,1.7-0.9,2.6-1.2l0.7,1.8C18.2,11.9,16.7,12.8,15.4,13.9z"/>
	<path class="st23" d="M22.5,10.8l-0.3-1.9c1-0.2,1.9-0.2,2.9-0.2s1.9,0.1,2.9,0.3l-0.3,1.9c-0.8-0.1-1.7-0.2-2.5-0.2
		C24.1,10.6,23.3,10.6,22.5,10.8L22.5,10.8z M30,11.5l0.7-1.8c0.9,0.3,1.8,0.7,2.6,1.2c0.8,0.5,1.6,1,2.4,1.6L34.3,14
		C33.1,12.9,31.6,12,30,11.5L30,11.5z M36.1,15.7l1.5-1.3c0.6,0.7,1.2,1.5,1.6,2.4c0.5,0.8,0.9,1.7,1.2,2.6l-1.9,0.7
		C38,18.5,37.2,17,36.1,15.7L36.1,15.7z M39.3,22.5l2-0.3c0.2,0.9,0.2,1.9,0.2,2.8c0,0.9-0.1,1.9-0.3,2.8l-2-0.3
		c0.1-0.8,0.2-1.6,0.2-2.5C39.5,24.2,39.4,23.3,39.3,22.5L39.3,22.5z M38.6,29.9l1.9,0.7c-0.3,0.9-0.8,1.8-1.2,2.6
		c-0.5,0.8-1,1.6-1.7,2.3l-1.5-1.3C37.2,33,38,31.5,38.6,29.9L38.6,29.9z M34.3,36l1.3,1.5c-0.7,0.6-1.5,1.1-2.4,1.6
		c-0.8,0.5-1.7,0.9-2.6,1.2l-0.7-1.8C31.6,37.9,33,37.1,34.3,36L34.3,36z M27.5,39.2l0.3,1.9c-1,0.2-1.9,0.2-2.9,0.2
		s-1.9-0.1-2.9-0.3l0.3-1.9c0.8,0.1,1.6,0.2,2.5,0.2C25.8,39.4,26.6,39.3,27.5,39.2L27.5,39.2z M20,38.5l-0.7,1.8
		c-0.9-0.3-1.8-0.7-2.6-1.2c-0.8-0.5-1.6-1-2.4-1.6l1.3-1.5C16.9,37.1,18.4,37.9,20,38.5L20,38.5z M13.8,34.2l-1.5,1.2
		c-0.6-0.7-1.2-1.5-1.6-2.4c-0.5-0.8-0.9-1.7-1.2-2.6l1.8-0.6C11.9,31.5,12.7,33,13.8,34.2L13.8,34.2z M10.6,27.5l-1.9,0.3
		c-0.2-0.9-0.2-1.9-0.2-2.9c0-0.9,0.1-1.9,0.3-2.8l1.9,0.3c-0.1,0.8-0.2,1.6-0.2,2.5C10.4,25.8,10.5,26.6,10.6,27.5L10.6,27.5z
		 M11.3,20l-1.8-0.7c0.3-0.9,0.8-1.8,1.2-2.6c0.5-0.8,1-1.6,1.7-2.3l1.5,1.2C12.7,17,11.9,18.4,11.3,20L11.3,20z M15.6,13.9
		l-1.3-1.5c0.7-0.6,1.5-1.1,2.4-1.6c0.8-0.5,1.7-0.9,2.6-1.2l0.7,1.8C18.4,12,16.9,12.8,15.6,13.9z"/>
	
		<linearGradient id="SVGID_20_" gradientUnits="userSpaceOnUse" x1="-36.7989" y1="457.0947" x2="-8.9378" y2="457.0947" gradientTransform="matrix(1 3.494883e-03 -3.494883e-03 1 49.4557 -432.0444)">
		<stop  offset="0" style="stop-color:#812990"/>
		<stop  offset="0.3402" style="stop-color:#AA198E"/>
		<stop  offset="0.7804" style="stop-color:#DA078D"/>
		<stop  offset="1" style="stop-color:#EC008C"/>
	</linearGradient>
	<path class="st26" d="M24.9,38.8c7.7,0,13.9-6.1,14-13.7c0-7.6-6.2-13.8-13.9-13.8c-7.7,0-13.9,6.1-14,13.7
		C11,32.5,17.3,38.7,24.9,38.8z"/>
	
		<linearGradient id="SVGID_21_" gradientUnits="userSpaceOnUse" x1="-9.7198" y1="477.3573" x2="-35.9018" y2="437.0406" gradientTransform="matrix(1 3.494883e-03 -3.494883e-03 1 49.4557 -432.0444)">
		<stop  offset="0" style="stop-color:#808285"/>
		<stop  offset="6.044060e-02" style="stop-color:#8B8C8F"/>
		<stop  offset="0.3695" style="stop-color:#BCBEBF"/>
		<stop  offset="0.6403" style="stop-color:#E1E1E2"/>
		<stop  offset="0.8596" style="stop-color:#F7F7F7"/>
		<stop  offset="1" style="stop-color:#FFFFFF"/>
	</linearGradient>
	<path class="st27" d="M25,6.6c-1.1,0-1.6,0.1-2.8,0.2C20.9,7,20,6.1,19.8,5.1l-1-4.3c2-0.5,4.2-0.8,6.4-0.8c2.2,0,4.3,0.3,6.3,0.8
		l-1.1,4.3c-0.3,1.1-1.2,1.9-2.5,1.7C26.7,6.7,26.2,6.6,25,6.6L25,6.6z M41.1,15.8c-0.5-0.9-0.9-1.4-1.6-2.3c-0.8-1-0.5-2.2,0.3-3
		l3.2-3c3,3,5.2,6.7,6.3,10.9l-4.3,1.2c-1.1,0.3-2.3,0-2.8-1.2C41.8,17.3,41.6,16.8,41.1,15.8L41.1,15.8z M41,34.2
		c0.5-0.9,0.8-1.4,1.2-2.6c0.5-1.2,1.7-1.5,2.8-1.2l4.3,1.3c-1.2,4.2-3.4,7.9-6.4,10.9l-3.2-3.1c-0.8-0.8-1.1-1.9-0.3-3
		C40.2,35.6,40.5,35.2,41,34.2L41,34.2z M24.9,43.4c1.1,0,1.6-0.1,2.8-0.2c1.3-0.2,2.2,0.7,2.4,1.8l1,4.3c-2,0.5-4.2,0.8-6.4,0.8
		s-4.3-0.3-6.3-0.8l1.1-4.3c0.3-1.1,1.2-1.9,2.5-1.7C23.3,43.3,23.8,43.3,24.9,43.4L24.9,43.4z M8.9,34.1c0.5,0.9,0.9,1.4,1.6,2.3
		c0.8,1,0.5,2.2-0.3,3l-3.2,3c-3-3-5.2-6.7-6.3-10.9l4.3-1.2c1.1-0.3,2.3,0,2.7,1.2C8.1,32.7,8.3,33.2,8.9,34.1L8.9,34.1z M8.9,15.7
		c-0.5,0.9-0.8,1.4-1.2,2.6C7.2,19.5,6,19.8,5,19.5l-4.3-1.3c1.2-4.2,3.4-7.9,6.4-10.9l3.2,3.1c0.8,0.8,1.1,1.9,0.3,3
		C9.8,14.4,9.5,14.8,8.9,15.7z"/>
	
		<linearGradient id="SVGID_22_" gradientUnits="userSpaceOnUse" x1="-41.7244" y1="439.5106" x2="-4.3405" y2="474.3716" gradientTransform="matrix(1 3.494883e-03 -3.494883e-03 1 49.4557 -432.0444)">
		<stop  offset="0" style="stop-color:#E7E8E9"/>
		<stop  offset="1" style="stop-color:#FFFFFF"/>
	</linearGradient>
	<path class="st28" d="M41.1,15.8c-0.5-0.9-0.9-1.4-1.6-2.3c-0.8-1-0.5-2.2,0.3-3l2.9-2.8c2.9,3,5.1,6.6,6.2,10.7L45,19.6
		c-1.1,0.3-2.3,0-2.8-1.2C41.8,17.3,41.6,16.8,41.1,15.8L41.1,15.8z M41,34.2c0.5-0.9,0.8-1.4,1.2-2.6c0.5-1.2,1.7-1.5,2.8-1.2
		l3.9,1.1c-1.2,4.1-3.3,7.8-6.3,10.7l-2.9-2.8c-0.8-0.8-1.1-1.9-0.3-3C40.2,35.6,40.5,35.2,41,34.2L41,34.2z M24.9,43.4
		c1.1,0,1.6-0.1,2.8-0.2c1.3-0.2,2.2,0.7,2.4,1.8l0.9,3.9c-2,0.5-4.1,0.8-6.2,0.8s-4.3-0.3-6.2-0.8l1-3.9c0.3-1.1,1.2-1.9,2.5-1.7
		C23.3,43.3,23.8,43.3,24.9,43.4L24.9,43.4z M8.9,34.1c0.5,0.9,0.9,1.4,1.6,2.3c0.8,1,0.5,2.2-0.3,3l-2.9,2.8
		c-2.9-3-5.1-6.6-6.2-10.7l3.9-1.1c1.1-0.3,2.3,0,2.7,1.2C8.1,32.7,8.3,33.2,8.9,34.1L8.9,34.1z M8.9,15.7c-0.5,0.9-0.8,1.4-1.2,2.6
		C7.2,19.5,6,19.8,5,19.5l-3.9-1.1c1.2-4.1,3.3-7.8,6.3-10.7l2.9,2.8c0.8,0.8,1.1,1.9,0.3,3C9.8,14.4,9.5,14.8,8.9,15.7L8.9,15.7z
		 M25,6.6c-1.1,0-1.6,0.1-2.8,0.2C20.9,7,20,6.1,19.8,5.1l-0.9-3.9c2-0.5,4.1-0.8,6.2-0.8s4.2,0.3,6.2,0.8l-1,3.9
		c-0.3,1.1-1.2,1.9-2.5,1.7C26.7,6.7,26.2,6.6,25,6.6z"/>
	<path class="st23" d="M24.9,37.7C32,37.7,37.8,32,37.8,25c0-7-5.7-12.7-12.8-12.8c-7.1,0-12.8,5.7-12.9,12.7
		C12.1,31.9,17.9,37.7,24.9,37.7z"/>
	<path class="st24" d="M25,11.2c4.2,0,8,1.9,10.6,4.9c-2.5-2.9-6.2-4.7-10.4-4.7c-7.7,0-13.9,6.1-14,13.7c0,3.4,1.2,6.6,3.3,9
		c-2.2-2.4-3.5-5.6-3.5-9.2C11.1,17.3,17.3,11.2,25,11.2z"/>
</g>
<g>
	
		<linearGradient id="SVGID_23_" gradientUnits="userSpaceOnUse" x1="155.416" y1="714.3182" x2="114.3029" y2="686.587" gradientTransform="matrix(1 1.833275e-03 -1.833275e-03 1 91.532 -675.6302)">
		<stop  offset="0" style="stop-color:#005822"/>
		<stop  offset="1" style="stop-color:#BFD730"/>
	</linearGradient>
	<path class="st29" d="M225,0.2c13.8,0,25,11.1,25,24.8c0,13.7-11.2,24.7-25,24.7c-13.8,0-25-11.1-25-24.8
		C200,11.3,211.2,0.2,225,0.2z"/>
	<path class="st30" d="M225,49.4c13.6,0,24.7-10.9,24.7-24.4c0-13.5-11-24.4-24.6-24.5c-13.6,0-24.7,10.9-24.7,24.4
		C200.3,38.4,211.4,49.4,225,49.4z"/>
	<path class="st31" d="M225.3,8.3c9.5,0,17.1,7.6,17.1,17c0,9.4-7.7,16.9-17.1,16.9c-9.5,0-17.1-7.6-17.1-17
		C208.1,15.8,215.8,8.3,225.3,8.3z"/>
	
		<linearGradient id="SVGID_24_" gradientUnits="userSpaceOnUse" x1="118.1258" y1="681.9091" x2="145.9452" y2="712.8057" gradientTransform="matrix(1 1.833275e-03 -1.833275e-03 1 91.532 -675.6302)">
		<stop  offset="0" style="stop-color:#E7E8E9"/>
		<stop  offset="0.1124" style="stop-color:#EBECED"/>
		<stop  offset="0.5951" style="stop-color:#FAFAFA"/>
		<stop  offset="1" style="stop-color:#FFFFFF"/>
	</linearGradient>
	<path class="st32" d="M225,8.1c9.5,0,17.1,7.6,17.1,17c0,9.4-7.7,16.9-17.1,16.9c-9.5,0-17.1-7.6-17.1-17
		C207.9,15.6,215.6,8,225,8.1z"/>
	<path class="st31" d="M222.2,10.8l-0.3-1.9c1-0.2,1.9-0.2,2.9-0.2s1.9,0.1,2.9,0.3l-0.3,1.9c-0.8-0.1-1.7-0.2-2.5-0.2
		C223.9,10.6,223.1,10.6,222.2,10.8L222.2,10.8z M229.7,11.4l0.7-1.8c0.9,0.3,1.8,0.7,2.6,1.2c0.8,0.5,1.6,1,2.4,1.6l-1.3,1.5
		C232.8,12.9,231.3,12,229.7,11.4L229.7,11.4z M235.9,15.7l1.5-1.3c0.6,0.7,1.2,1.5,1.6,2.3c0.5,0.8,0.9,1.7,1.2,2.6l-1.9,0.7
		C237.8,18.4,237,17,235.9,15.7L235.9,15.7z M239.1,22.4l2-0.3c0.2,0.9,0.2,1.9,0.2,2.8s-0.1,1.9-0.3,2.8l-2-0.3
		c0.1-0.8,0.2-1.6,0.2-2.5C239.3,24.1,239.2,23.3,239.1,22.4L239.1,22.4z M238.4,29.9l1.9,0.7c-0.3,0.9-0.8,1.8-1.2,2.6
		c-0.5,0.8-1,1.6-1.6,2.3l-1.5-1.3C237,32.9,237.8,31.5,238.4,29.9L238.4,29.9z M234.1,36l1.3,1.5c-0.7,0.6-1.5,1.2-2.4,1.6
		c-0.8,0.5-1.7,0.9-2.6,1.2l-0.7-1.8C231.4,37.9,232.8,37,234.1,36L234.1,36z M227.3,39.1l0.3,1.9c-1,0.2-1.9,0.2-2.9,0.2
		s-1.9-0.1-2.9-0.3l0.3-1.9c0.8,0.1,1.6,0.2,2.5,0.2C225.6,39.4,226.4,39.3,227.3,39.1L227.3,39.1z M219.8,38.5l-0.7,1.8
		c-0.9-0.3-1.8-0.7-2.6-1.2c-0.8-0.5-1.6-1-2.4-1.6l1.3-1.5C216.7,37.1,218.2,37.9,219.8,38.5L219.8,38.5z M213.6,34.2l-1.5,1.2
		c-0.6-0.7-1.2-1.5-1.6-2.4c-0.5-0.8-0.9-1.7-1.2-2.6l1.8-0.7C211.6,31.5,212.5,33,213.6,34.2L213.6,34.2z M210.4,27.5l-1.9,0.3
		c-0.2-0.9-0.2-1.9-0.2-2.8s0.1-1.9,0.3-2.8l1.9,0.3c-0.1,0.8-0.2,1.6-0.2,2.5C210.2,25.8,210.2,26.6,210.4,27.5L210.4,27.5z
		 M211.1,20l-1.8-0.7c0.3-0.9,0.7-1.8,1.2-2.6c0.5-0.8,1-1.6,1.7-2.3l1.5,1.2C212.5,17,211.6,18.4,211.1,20L211.1,20z M215.4,13.9
		l-1.3-1.5c0.7-0.6,1.5-1.2,2.4-1.6c0.8-0.5,1.7-0.9,2.6-1.2l0.7,1.8C218.2,12,216.7,12.8,215.4,13.9z"/>
	<path class="st30" d="M222.5,10.8l-0.3-1.9c1-0.2,1.9-0.2,2.9-0.2c1,0,1.9,0.1,2.9,0.3l-0.3,1.9c-0.8-0.1-1.7-0.2-2.5-0.2
		C224.1,10.6,223.3,10.7,222.5,10.8L222.5,10.8z M230,11.5l0.7-1.8c0.9,0.3,1.8,0.7,2.6,1.2c0.8,0.5,1.6,1,2.4,1.6l-1.3,1.5
		C233.1,12.9,231.6,12.1,230,11.5L230,11.5z M236.1,15.8l1.5-1.3c0.6,0.7,1.2,1.5,1.6,2.3c0.5,0.8,0.9,1.7,1.2,2.6l-1.9,0.7
		C238.1,18.5,237.2,17,236.1,15.8L236.1,15.8z M239.3,22.5l2-0.3c0.2,0.9,0.2,1.9,0.2,2.8s-0.1,1.9-0.3,2.8l-2-0.3
		c0.1-0.8,0.2-1.6,0.2-2.5C239.5,24.2,239.4,23.3,239.3,22.5L239.3,22.5z M238.7,29.9l1.9,0.7c-0.3,0.9-0.8,1.8-1.2,2.6
		c-0.5,0.8-1,1.6-1.6,2.3l-1.5-1.3C237.2,33,238.1,31.5,238.7,29.9L238.7,29.9z M234.4,36l1.3,1.5c-0.7,0.6-1.5,1.1-2.4,1.6
		s-1.7,0.9-2.6,1.2l-0.7-1.8C231.6,37.9,233.1,37.1,234.4,36L234.4,36z M227.5,39.2l0.3,1.9c-1,0.2-1.9,0.2-2.9,0.2
		s-1.9-0.1-2.9-0.3l0.3-1.9c0.8,0.1,1.6,0.2,2.5,0.2C225.8,39.4,226.7,39.3,227.5,39.2L227.5,39.2z M220,38.6l-0.7,1.8
		c-0.9-0.3-1.8-0.7-2.6-1.2c-0.8-0.5-1.6-1-2.4-1.6l1.3-1.5C216.9,37.1,218.4,38,220,38.6L220,38.6z M213.8,34.3l-1.5,1.2
		c-0.6-0.7-1.2-1.5-1.6-2.4c-0.5-0.8-0.9-1.7-1.2-2.6l1.8-0.7C211.9,31.6,212.8,33,213.8,34.3L213.8,34.3z M210.6,27.5l-1.9,0.3
		c-0.2-0.9-0.2-1.9-0.2-2.8c0-0.9,0.1-1.9,0.3-2.8l1.9,0.3c-0.1,0.8-0.2,1.6-0.2,2.5C210.4,25.8,210.5,26.7,210.6,27.5L210.6,27.5z
		 M211.3,20.1l-1.8-0.7c0.3-0.9,0.7-1.8,1.2-2.6c0.5-0.8,1-1.6,1.7-2.3l1.5,1.2C212.8,17,211.9,18.5,211.3,20.1L211.3,20.1z
		 M215.6,13.9l-1.3-1.5c0.7-0.6,1.5-1.2,2.4-1.6c0.8-0.5,1.7-0.9,2.6-1.2l0.7,1.8C218.4,12,216.9,12.9,215.6,13.9z"/>
	<path class="st30" d="M225,38.8c7.7,0,13.9-6.2,13.9-13.8c0-7.6-6.2-13.8-13.9-13.8c-7.7,0-13.9,6.2-13.9,13.8
		C211.1,32.6,217.3,38.8,225,38.8z"/>
	
		<linearGradient id="SVGID_25_" gradientUnits="userSpaceOnUse" x1="147.9064" y1="720.6235" x2="121.7246" y2="680.307" gradientTransform="matrix(1 1.833275e-03 -1.833275e-03 1 91.532 -675.6302)">
		<stop  offset="0" style="stop-color:#808285"/>
		<stop  offset="6.044060e-02" style="stop-color:#8B8C8F"/>
		<stop  offset="0.3695" style="stop-color:#BCBEBF"/>
		<stop  offset="0.6403" style="stop-color:#E1E1E2"/>
		<stop  offset="0.8596" style="stop-color:#F7F7F7"/>
		<stop  offset="1" style="stop-color:#FFFFFF"/>
	</linearGradient>
	<path class="st33" d="M225,6.6c-1.1,0-1.6,0.1-2.8,0.2c-1.3,0.2-2.2-0.7-2.4-1.7l-1.1-4.3c2-0.5,4.2-0.8,6.4-0.8
		c2.2,0,4.3,0.3,6.3,0.8l-1.1,4.3c-0.3,1.1-1.2,1.9-2.5,1.7C226.7,6.7,226.1,6.6,225,6.6L225,6.6z M241.1,15.8
		c-0.5-0.9-0.9-1.4-1.6-2.3c-0.8-1-0.5-2.2,0.3-3l3.3-3c3,3,5.2,6.7,6.3,10.9l-4.3,1.2c-1.1,0.3-2.3,0-2.8-1.2
		C241.9,17.3,241.6,16.8,241.1,15.8L241.1,15.8z M241.1,34.2c0.5-0.9,0.8-1.4,1.2-2.6c0.5-1.2,1.7-1.5,2.8-1.2l4.3,1.2
		c-1.2,4.2-3.4,7.9-6.4,10.9l-3.2-3.1c-0.8-0.8-1.1-1.9-0.3-3C240.2,35.6,240.5,35.2,241.1,34.2L241.1,34.2z M225,43.4
		c1.1,0,1.6-0.1,2.8-0.2c1.3-0.2,2.2,0.7,2.5,1.7l1,4.3c-2,0.5-4.2,0.8-6.4,0.8c-2.2,0-4.3-0.3-6.3-0.8l1.1-4.3
		c0.3-1.1,1.2-1.9,2.5-1.7C223.4,43.3,223.9,43.4,225,43.4L225,43.4z M208.9,34.2c0.5,0.9,0.9,1.4,1.6,2.3c0.8,1,0.5,2.2-0.3,3
		l-3.2,3c-3-3-5.2-6.7-6.3-10.9l4.3-1.2c1.1-0.3,2.3,0,2.8,1.2C208.2,32.7,208.4,33.2,208.9,34.2L208.9,34.2z M208.9,15.8
		c-0.5,0.9-0.8,1.4-1.2,2.6c-0.5,1.2-1.7,1.5-2.8,1.2l-4.3-1.3c1.2-4.2,3.4-7.9,6.4-10.9l3.2,3.1c0.8,0.8,1.1,1.9,0.3,3
		C209.8,14.4,209.5,14.8,208.9,15.8z"/>
	
		<linearGradient id="SVGID_26_" gradientUnits="userSpaceOnUse" x1="115.8842" y1="682.7981" x2="153.2671" y2="717.6582" gradientTransform="matrix(1 1.833275e-03 -1.833275e-03 1 91.532 -675.6302)">
		<stop  offset="0" style="stop-color:#E7E8E9"/>
		<stop  offset="1" style="stop-color:#FFFFFF"/>
	</linearGradient>
	<path class="st34" d="M241.1,15.8c-0.5-0.9-0.9-1.4-1.6-2.3c-0.8-1-0.5-2.2,0.3-3l2.9-2.8c2.9,3,5.1,6.6,6.2,10.7l-3.9,1.1
		c-1.1,0.3-2.3,0-2.8-1.2C241.9,17.3,241.6,16.8,241.1,15.8L241.1,15.8z M241.1,34.2c0.5-0.9,0.8-1.4,1.2-2.6
		c0.5-1.2,1.7-1.5,2.8-1.2l3.9,1.1c-1.2,4.1-3.3,7.8-6.3,10.7l-2.9-2.8c-0.8-0.8-1.1-1.9-0.3-3C240.2,35.6,240.5,35.2,241.1,34.2
		L241.1,34.2z M225,43.4c1.1,0,1.6-0.1,2.8-0.2c1.3-0.2,2.2,0.7,2.5,1.7l1,3.9c-2,0.5-4.1,0.8-6.3,0.8c-2.2,0-4.3-0.3-6.3-0.8l1-3.9
		c0.3-1.1,1.2-1.9,2.5-1.7C223.4,43.3,223.9,43.4,225,43.4L225,43.4z M208.9,34.2c0.5,0.9,0.9,1.4,1.6,2.3c0.8,1,0.5,2.2-0.3,3
		l-2.9,2.8c-2.9-3-5.1-6.6-6.2-10.7l3.9-1.1c1.1-0.3,2.3,0,2.8,1.2C208.2,32.7,208.4,33.2,208.9,34.2L208.9,34.2z M208.9,15.8
		c-0.5,0.9-0.8,1.4-1.2,2.6c-0.5,1.2-1.7,1.5-2.8,1.2l-3.9-1.1c1.2-4.1,3.3-7.8,6.3-10.7l2.9,2.8c0.8,0.8,1.1,1.9,0.3,3
		C209.8,14.4,209.5,14.8,208.9,15.8L208.9,15.8z M225,6.6c-1.1,0-1.6,0.1-2.8,0.2c-1.3,0.2-2.2-0.7-2.4-1.7l-1-3.9
		c2-0.5,4.1-0.8,6.3-0.8c2.2,0,4.2,0.3,6.3,0.8l-1,3.9c-0.3,1.1-1.2,1.9-2.5,1.7C226.7,6.7,226.1,6.6,225,6.6z"/>
	<path class="st30" d="M225,37.7c7.1,0,12.8-5.7,12.8-12.7c0-7-5.7-12.7-12.8-12.7c-7.1,0-12.8,5.7-12.8,12.7S217.9,37.7,225,37.7z"
		/>
	<path class="st31" d="M225,11.2c4.2,0,8,1.9,10.6,4.8c-2.5-2.9-6.3-4.7-10.4-4.7c-7.7,0-13.9,6.1-13.9,13.8c0,3.4,1.3,6.6,3.3,9
		c-2.2-2.4-3.5-5.6-3.5-9.1C211.1,17.4,217.3,11.2,225,11.2z"/>
</g>
<g>
	
		<linearGradient id="SVGID_27_" gradientUnits="userSpaceOnUse" x1="145.6575" y1="556.9337" x2="104.5522" y2="529.2078" gradientTransform="matrix(1 0 0 1 0 -518)">
		<stop  offset="0" style="stop-color:#7F0000"/>
		<stop  offset="1" style="stop-color:#ED1C24"/>
	</linearGradient>
	<path class="st35" d="M125,0.3c13.8,0,25,11.1,25,24.7s-11.2,24.7-25,24.7S100,38.7,100,25C100,11.3,111.2,0.3,125,0.3z"/>
	
		<radialGradient id="SVGID_28_" cx="135.1816" cy="563.4903" r="56.9871" gradientTransform="matrix(1.0106 0 0 1 -0.764 -518)" gradientUnits="userSpaceOnUse">
		<stop  offset="0" style="stop-color:#ED1C24"/>
		<stop  offset="0.2227" style="stop-color:#E31A21"/>
		<stop  offset="0.6017" style="stop-color:#C8141B"/>
		<stop  offset="1" style="stop-color:#A50D12"/>
	</radialGradient>
	<path class="st36" d="M125,49.4c13.6,0,24.7-11,24.7-24.4c0-13.4-11.1-24.4-24.7-24.4s-24.7,11-24.7,24.4S111.4,49.4,125,49.4z"/>
	<path class="st37" d="M125.2,8.3c9.5,0,17.1,7.6,17.1,16.9c0,9.4-7.7,16.9-17.1,16.9c-9.4,0-17.1-7.6-17.1-16.9
		C108.1,15.9,115.8,8.3,125.2,8.3z"/>
	
		<linearGradient id="SVGID_29_" gradientUnits="userSpaceOnUse" x1="108.3883" y1="524.5348" x2="136.1971" y2="555.4196" gradientTransform="matrix(1 0 0 1 0 -518)">
		<stop  offset="0" style="stop-color:#E7E8E9"/>
		<stop  offset="0.1124" style="stop-color:#EBECED"/>
		<stop  offset="0.5951" style="stop-color:#FAFAFA"/>
		<stop  offset="1" style="stop-color:#FFFFFF"/>
	</linearGradient>
	<path class="st38" d="M125,8.1c9.5,0,17.1,7.6,17.1,16.9c0,9.4-7.7,16.9-17.1,16.9c-9.5,0-17.1-7.6-17.1-16.9
		C107.9,15.6,115.5,8.1,125,8.1z"/>
	<path class="st37" d="M122.2,10.8l-0.3-1.9c1-0.2,1.9-0.2,2.9-0.2c1,0,1.9,0.1,2.9,0.2l-0.3,1.9c-0.8-0.1-1.7-0.2-2.5-0.2
		C123.9,10.5,123,10.6,122.2,10.8L122.2,10.8z M129.7,11.4l0.7-1.8c0.9,0.3,1.8,0.7,2.6,1.2c0.8,0.5,1.6,1,2.4,1.6l-1.3,1.5
		C132.8,12.9,131.3,12,129.7,11.4L129.7,11.4z M135.9,15.7l1.5-1.3c0.6,0.7,1.2,1.5,1.6,2.3c0.5,0.8,0.9,1.7,1.2,2.6l-1.9,0.7
		C137.8,18.4,136.9,16.9,135.9,15.7L135.9,15.7z M139,22.4l2-0.3c0.2,0.9,0.2,1.9,0.2,2.8c0,0.9-0.1,1.9-0.2,2.8l-2-0.3
		c0.1-0.8,0.2-1.6,0.2-2.5C139.3,24.1,139.2,23.2,139,22.4L139,22.4z M138.4,29.8l1.9,0.7c-0.3,0.9-0.7,1.8-1.2,2.6
		c-0.5,0.8-1,1.6-1.6,2.3l-1.5-1.3C137,32.9,137.8,31.4,138.4,29.8L138.4,29.8z M134.1,35.9l1.3,1.5c-0.7,0.6-1.5,1.2-2.4,1.6
		c-0.8,0.5-1.7,0.9-2.6,1.2l-0.7-1.8C131.4,37.9,132.8,37,134.1,35.9L134.1,35.9z M127.3,39.1l0.3,1.9c-1,0.2-1.9,0.2-2.9,0.2
		c-1,0-1.9-0.1-2.9-0.2l0.3-1.9c0.8,0.1,1.6,0.2,2.5,0.2C125.6,39.3,126.5,39.3,127.3,39.1L127.3,39.1z M119.8,38.5l-0.7,1.8
		c-0.9-0.3-1.8-0.7-2.6-1.2c-0.8-0.5-1.6-1-2.4-1.6l1.3-1.5C116.7,37.1,118.2,37.9,119.8,38.5L119.8,38.5z M113.6,34.2l-1.5,1.2
		c-0.6-0.7-1.2-1.5-1.6-2.3c-0.5-0.8-0.9-1.7-1.2-2.6l1.8-0.7C111.6,31.5,112.5,33,113.6,34.2L113.6,34.2z M110.4,27.5l-1.9,0.3
		c-0.2-0.9-0.2-1.9-0.2-2.8s0.1-1.9,0.2-2.8l1.9,0.3c-0.1,0.8-0.2,1.6-0.2,2.5C110.2,25.8,110.2,26.7,110.4,27.5L110.4,27.5z
		 M111,20l-1.8-0.7c0.3-0.9,0.7-1.8,1.2-2.6c0.5-0.8,1-1.6,1.6-2.3l1.5,1.2C112.5,17,111.6,18.4,111,20L111,20z M115.4,13.9
		l-1.3-1.5c0.7-0.6,1.5-1.2,2.4-1.6c0.8-0.5,1.7-0.9,2.6-1.2l0.7,1.8C118.1,12,116.7,12.9,115.4,13.9z"/>
	
		<radialGradient id="SVGID_30_" cx="131.6452" cy="556.7401" r="38.2061" gradientTransform="matrix(1.0106 0 0 1 -0.764 -518)" gradientUnits="userSpaceOnUse">
		<stop  offset="0" style="stop-color:#ED1C24"/>
		<stop  offset="0.2227" style="stop-color:#E31A21"/>
		<stop  offset="0.6017" style="stop-color:#C8141B"/>
		<stop  offset="1" style="stop-color:#A50D12"/>
	</radialGradient>
	<path class="st39" d="M122.4,10.8l-0.3-1.9c0.9-0.2,1.9-0.2,2.9-0.2c1,0,1.9,0.1,2.9,0.2l-0.3,1.9c-0.8-0.1-1.7-0.2-2.5-0.2
		C124.1,10.6,123.3,10.7,122.4,10.8L122.4,10.8z M130,11.5l0.7-1.8c0.9,0.3,1.8,0.7,2.6,1.2c0.8,0.5,1.6,1,2.4,1.6l-1.3,1.5
		C133,12.9,131.6,12,130,11.5L130,11.5z M136.1,15.7l1.5-1.3c0.6,0.7,1.2,1.5,1.6,2.3c0.5,0.8,0.9,1.7,1.2,2.6l-1.9,0.7
		C138,18.5,137.2,17,136.1,15.7L136.1,15.7z M139.3,22.5l2-0.3c0.2,0.9,0.2,1.9,0.2,2.8c0,0.9-0.1,1.9-0.2,2.8l-2-0.3
		c0.1-0.8,0.2-1.6,0.2-2.5C139.5,24.1,139.4,23.3,139.3,22.5L139.3,22.5z M138.7,29.9l1.9,0.7c-0.3,0.9-0.7,1.8-1.2,2.6
		c-0.5,0.8-1,1.6-1.6,2.3l-1.5-1.3C137.2,32.9,138.1,31.5,138.7,29.9L138.7,29.9z M134.4,36l1.3,1.5c-0.7,0.6-1.5,1.2-2.4,1.6
		c-0.8,0.5-1.7,0.9-2.6,1.2l-0.7-1.8C131.6,37.9,133.1,37.1,134.4,36L134.4,36z M127.6,39.2l0.3,1.9c-1,0.2-1.9,0.2-2.9,0.2
		c-1,0-1.9-0.1-2.9-0.2l0.3-1.9c0.8,0.1,1.6,0.2,2.5,0.2C125.9,39.4,126.7,39.3,127.6,39.2L127.6,39.2z M120,38.6l-0.7,1.8
		c-0.9-0.3-1.8-0.7-2.6-1.2c-0.8-0.5-1.6-1-2.4-1.6l1.3-1.5C116.9,37.1,118.4,38,120,38.6L120,38.6z M113.9,34.3l-1.5,1.2
		c-0.6-0.7-1.2-1.5-1.6-2.3c-0.5-0.8-0.9-1.7-1.2-2.6l1.8-0.7C111.9,31.5,112.8,33,113.9,34.3L113.9,34.3z M110.6,27.5l-1.9,0.3
		c-0.2-0.9-0.2-1.9-0.2-2.8c0-0.9,0.1-1.9,0.2-2.8l1.9,0.3c-0.1,0.8-0.2,1.6-0.2,2.5C110.4,25.9,110.5,26.7,110.6,27.5L110.6,27.5z
		 M111.3,20.1l-1.8-0.7c0.3-0.9,0.7-1.8,1.2-2.6c0.5-0.8,1-1.6,1.6-2.3l1.5,1.2C112.7,17,111.9,18.5,111.3,20.1L111.3,20.1z
		 M115.6,14l-1.3-1.5c0.7-0.6,1.5-1.2,2.4-1.6c0.8-0.5,1.7-0.9,2.6-1.2l0.7,1.8C118.4,12,116.9,12.9,115.6,14z"/>
	
		<radialGradient id="SVGID_31_" cx="131.8893" cy="554.0254" r="32.6379" gradientTransform="matrix(1.0106 0 0 1 -0.764 -518)" gradientUnits="userSpaceOnUse">
		<stop  offset="0" style="stop-color:#ED1C24"/>
		<stop  offset="0.6683" style="stop-color:#CE171E"/>
		<stop  offset="1" style="stop-color:#BD141A"/>
	</radialGradient>
	<path class="st40" d="M125,38.8c7.7,0,13.9-6.2,13.9-13.8s-6.2-13.8-13.9-13.8s-13.9,6.2-13.9,13.8C111.1,32.6,117.3,38.8,125,38.8
		z"/>
	
		<linearGradient id="SVGID_32_" gradientUnits="userSpaceOnUse" x1="138.1428" y1="563.246" x2="111.9721" y2="522.9467" gradientTransform="matrix(1 0 0 1 0 -518)">
		<stop  offset="0" style="stop-color:#808285"/>
		<stop  offset="6.044060e-02" style="stop-color:#8B8C8F"/>
		<stop  offset="0.3695" style="stop-color:#BCBEBF"/>
		<stop  offset="0.6403" style="stop-color:#E1E1E2"/>
		<stop  offset="0.8596" style="stop-color:#F7F7F7"/>
		<stop  offset="1" style="stop-color:#FFFFFF"/>
	</linearGradient>
	<path class="st41" d="M125,6.6c-1.1,0-1.6,0.1-2.8,0.2c-1.3,0.2-2.2-0.7-2.5-1.7l-1.1-4.3c2-0.5,4.2-0.8,6.4-0.8
		c2.2,0,4.3,0.3,6.4,0.8l-1.1,4.3c-0.3,1.1-1.2,1.9-2.5,1.7C126.6,6.7,126.1,6.6,125,6.6L125,6.6z M141.1,15.8
		c-0.5-0.9-0.9-1.4-1.6-2.3c-0.8-1-0.5-2.2,0.3-3l3.2-3.1c3,3,5.2,6.7,6.4,10.9l-4.3,1.2c-1.1,0.3-2.3,0-2.8-1.2
		C141.8,17.2,141.6,16.7,141.1,15.8L141.1,15.8z M141.1,34.2c0.5-0.9,0.8-1.4,1.2-2.6c0.5-1.2,1.7-1.5,2.8-1.2l4.3,1.2
		c-1.2,4.2-3.4,7.9-6.4,10.9l-3.2-3c-0.8-0.8-1.1-1.9-0.3-3C140.2,35.5,140.5,35.1,141.1,34.2L141.1,34.2z M125,43.4
		c1.1,0,1.6-0.1,2.8-0.2c1.3-0.2,2.2,0.7,2.5,1.7l1.1,4.3c-2,0.5-4.2,0.8-6.4,0.8s-4.3-0.3-6.4-0.8l1.1-4.3c0.3-1.1,1.1-1.9,2.5-1.7
		C123.4,43.3,123.9,43.4,125,43.4L125,43.4z M108.9,34.2c0.5,0.9,0.9,1.4,1.6,2.3c0.8,1,0.5,2.2-0.3,3l-3.2,3.1
		c-3-3-5.2-6.7-6.4-10.9l4.3-1.2c1.1-0.3,2.3,0,2.8,1.2C108.2,32.8,108.4,33.2,108.9,34.2L108.9,34.2z M108.9,15.8
		c-0.5,0.9-0.8,1.4-1.2,2.6c-0.5,1.2-1.7,1.5-2.8,1.2l-4.3-1.2c1.2-4.2,3.4-7.9,6.4-10.9l3.2,3.1c0.8,0.8,1.1,1.9,0.3,3
		C109.8,14.5,109.5,14.9,108.9,15.8z"/>
	
		<linearGradient id="SVGID_33_" gradientUnits="userSpaceOnUse" x1="106.147" y1="525.4193" x2="143.518" y2="560.2684" gradientTransform="matrix(1 0 0 1 0 -518)">
		<stop  offset="0" style="stop-color:#E7E8E9"/>
		<stop  offset="1" style="stop-color:#FFFFFF"/>
	</linearGradient>
	<path class="st42" d="M141.1,15.8c-0.5-0.9-0.9-1.4-1.6-2.3c-0.8-1-0.5-2.2,0.3-3l2.9-2.8c2.9,3,5.1,6.6,6.3,10.7l-3.9,1.1
		c-1.1,0.3-2.3,0-2.8-1.2C141.8,17.2,141.6,16.7,141.1,15.8L141.1,15.8z M141.1,34.2c0.5-0.9,0.8-1.4,1.2-2.6
		c0.5-1.2,1.7-1.5,2.8-1.2l3.9,1.1c-1.1,4.1-3.3,7.8-6.3,10.7l-2.9-2.8c-0.8-0.8-1.1-1.9-0.3-3C140.2,35.5,140.5,35.1,141.1,34.2
		L141.1,34.2z M125,43.4c1.1,0,1.6-0.1,2.8-0.2c1.3-0.2,2.2,0.7,2.5,1.7l1,3.9c-2,0.5-4.1,0.8-6.3,0.8s-4.3-0.3-6.3-0.8l1-3.9
		c0.3-1.1,1.1-1.9,2.5-1.7C123.4,43.3,123.9,43.4,125,43.4L125,43.4z M108.9,34.2c0.5,0.9,0.9,1.4,1.6,2.3c0.8,1,0.5,2.2-0.3,3
		l-2.9,2.8c-2.9-3-5.1-6.6-6.2-10.7l3.9-1.1c1.1-0.3,2.3,0,2.8,1.2C108.2,32.8,108.4,33.2,108.9,34.2L108.9,34.2z M108.9,15.8
		c-0.5,0.9-0.8,1.4-1.2,2.6c-0.5,1.2-1.7,1.5-2.8,1.2l-3.9-1.1c1.1-4.1,3.3-7.8,6.2-10.7l2.9,2.8c0.8,0.8,1.1,1.9,0.3,3
		C109.8,14.5,109.5,14.9,108.9,15.8L108.9,15.8z M125,6.6c-1.1,0-1.6,0.1-2.8,0.2c-1.3,0.2-2.2-0.7-2.5-1.7l-1-3.9
		c2-0.5,4.1-0.8,6.3-0.8s4.2,0.3,6.3,0.8l-1,3.9c-0.3,1.1-1.2,1.9-2.5,1.7C126.6,6.7,126.1,6.6,125,6.6z"/>
	
		<radialGradient id="SVGID_34_" cx="127.4965" cy="547.0679" r="22.9954" gradientTransform="matrix(1.0106 0 0 1 -0.764 -518)" gradientUnits="userSpaceOnUse">
		<stop  offset="0" style="stop-color:#ED1C24"/>
		<stop  offset="0.2227" style="stop-color:#E31A21"/>
		<stop  offset="0.6017" style="stop-color:#C8141B"/>
		<stop  offset="1" style="stop-color:#A50D12"/>
	</radialGradient>
	<ellipse class="st43" cx="125" cy="25" rx="12.8" ry="12.7"/>
	<path class="st10" d="M125,11.2c4.2,0,8,1.9,10.6,4.8c-2.6-2.9-6.3-4.6-10.4-4.6c-7.7,0-13.9,6.2-13.9,13.8c0,3.4,1.3,6.5,3.3,9
		c-2.2-2.4-3.5-5.6-3.5-9.1C111.1,17.4,117.3,11.2,125,11.2z"/>
</g>
</svg>
